<svg width="1730" height="676" viewBox="0 0 1730 676" fill="none" xmlns="http://www.w3.org/2000/svg">
<g opacity="0.8" clip-path="url(#clip0_193_4921)">
<path d="M89.0788 1456.99C42.5537 1340.01 24.3567 1101.89 323.769 1085.27C623.182 1068.66 622.234 889.333 584.334 801.75C542.425 682.582 557.585 441.915 953.498 432.586C1349.41 423.257 1302.86 134.242 1230.1 -9.09873C1175.19 -109.68 1137.39 -325.275 1425.43 -383" stroke="#7FC346" stroke-width="1.09328"/>
<path d="M512.177 1545.54C475.735 1454.19 479.087 1243.58 784.039 1131.92C1088.99 1020.26 1048.86 854.591 990.669 785.715C904.664 699.71 922.084 491.696 1278.93 553.211C1635.78 614.726 1579.46 334.191 1506.7 186.234C1430.05 46.7799 1379.88 -224.693 1792.41 -194.956" stroke="#27548C" stroke-width="1.09328"/>
<path d="M109.163 1461.1C63.118 1345.34 45.9472 1108.53 345.623 1087.39C645.3 1066.24 642.486 887.571 603.62 800.878C559.611 683.29 574.879 444.178 968.931 438.222C1362.98 432.267 1315.97 143.656 1243.21 0.0952667C1187.26 -102.337 1148.87 -320.593 1442.84 -374.153" stroke="#7BBE49" stroke-width="1.09328"/>
<path d="M129.256 1465.21C83.6913 1350.67 67.5466 1115.17 367.487 1089.5C667.427 1063.83 662.747 885.81 622.915 800.007C576.806 683.998 592.182 446.441 984.374 443.859C1376.57 441.277 1329.09 153.07 1256.32 9.28939C1199.34 -94.9943 1160.36 -315.911 1460.26 -365.306" stroke="#77B84D" stroke-width="1.09328"/>
<path d="M149.354 1469.32C104.27 1356 89.1512 1121.81 389.355 1091.61C689.559 1061.42 683.013 884.048 642.215 799.136C594.007 684.707 609.489 448.704 999.821 449.496C1390.15 450.287 1342.21 162.484 1269.44 18.4835C1211.43 -87.6513 1171.86 -311.228 1477.69 -356.459" stroke="#72B350" stroke-width="1.09328"/>
<path d="M169.457 1473.43C124.852 1361.33 110.76 1128.45 411.228 1093.73C711.695 1059.01 703.283 882.286 661.519 798.265C611.211 685.415 626.801 450.967 1015.27 455.132C1403.74 459.297 1355.33 171.898 1282.57 27.6775C1223.52 -80.3084 1183.36 -306.546 1495.12 -347.612" stroke="#6EAE53" stroke-width="1.09328"/>
<path d="M189.567 1477.54C145.443 1366.66 132.377 1135.09 433.108 1095.84C733.84 1056.6 723.562 880.524 680.831 797.394C628.423 686.123 644.122 453.23 1030.73 460.769C1417.34 468.307 1368.47 181.312 1295.71 36.8716C1235.62 -72.9653 1194.87 -301.864 1512.56 -338.765" stroke="#6AA957" stroke-width="1.09328"/>
<path d="M209.685 1481.64C166.041 1371.99 154.001 1141.73 454.996 1097.96C755.991 1054.18 743.847 878.762 700.151 796.523C645.643 686.831 661.449 455.493 1046.2 466.405C1430.95 477.317 1381.61 190.725 1308.85 46.0656C1247.73 -65.6223 1206.39 -297.182 1530 -329.918" stroke="#66A35A" stroke-width="1.09328"/>
<path d="M229.806 1485.75C186.642 1377.32 175.628 1148.37 476.887 1100.07C778.146 1051.77 764.136 877 719.473 795.652C662.866 687.539 678.779 457.756 1061.67 472.042C1444.56 486.327 1394.76 200.139 1321.99 55.2597C1259.84 -58.2793 1217.91 -292.5 1547.45 -321.071" stroke="#629E5D" stroke-width="1.09328"/>
<path d="M249.933 1489.86C207.249 1382.65 197.261 1155.01 498.784 1102.18C800.307 1049.36 784.431 875.239 738.802 794.781C680.095 688.247 696.116 460.019 1077.15 477.678C1458.18 495.338 1407.91 209.553 1335.14 64.4539C1271.95 -50.9362 1229.44 -287.818 1564.9 -312.224" stroke="#5D9961" stroke-width="1.09328"/>
<path d="M270.071 1493.97C227.867 1387.98 218.906 1161.65 520.692 1104.3C822.479 1046.95 804.737 873.476 758.142 793.91C697.335 688.955 713.463 462.282 1092.63 483.315C1471.8 504.347 1421.07 218.967 1348.3 73.6478C1284.08 -43.5933 1240.98 -283.136 1582.37 -303.377" stroke="#599364" stroke-width="1.09328"/>
<path d="M290.211 1498.08C248.487 1393.31 240.552 1168.29 542.602 1106.41C844.652 1044.53 825.044 871.715 777.483 793.039C714.577 689.664 730.813 464.545 1108.12 488.952C1485.43 513.358 1434.23 228.381 1361.47 82.842C1296.21 -36.2502 1252.51 -278.454 1599.84 -294.53" stroke="#558E67" stroke-width="1.09328"/>
<path d="M310.357 1502.19C269.113 1398.64 262.204 1174.93 564.518 1108.52C866.832 1042.12 845.358 869.953 796.831 792.168C731.824 690.372 748.168 466.808 1123.62 494.588C1499.07 522.368 1447.4 237.795 1374.64 92.036C1308.34 -28.9072 1264.06 -273.772 1617.31 -285.683" stroke="#51896B" stroke-width="1.09328"/>
<path d="M330.511 1506.3C289.747 1403.97 283.864 1181.57 586.442 1110.64C889.02 1039.71 865.679 868.191 816.187 791.297C749.08 691.08 765.532 469.071 1139.12 500.225C1512.71 531.378 1460.58 247.209 1387.82 101.23C1320.48 -21.5642 1275.61 -269.089 1634.79 -276.836" stroke="#4D846E" stroke-width="1.09328"/>
<path d="M350.672 1510.41C310.389 1409.3 305.532 1188.21 608.373 1112.75C911.215 1037.3 886.008 866.429 835.55 790.426C766.344 691.788 782.902 471.334 1154.63 505.861C1526.36 540.388 1473.76 256.623 1401 110.424C1332.63 -14.2211 1287.17 -264.407 1652.28 -267.989" stroke="#497E71" stroke-width="1.09328"/>
<path d="M370.837 1514.52C331.033 1414.63 327.203 1194.85 630.308 1114.87C933.414 1034.89 906.341 864.668 854.916 789.556C783.61 692.497 800.277 473.599 1170.14 511.499C1540.01 549.399 1486.95 266.038 1414.19 119.619C1344.79 -6.87715 1298.74 -259.724 1669.77 -259.141" stroke="#447975" stroke-width="1.09328"/>
<path d="M391.01 1518.69C351.686 1420.02 348.882 1201.55 652.251 1117.05C955.62 1032.54 926.682 862.971 874.291 788.749C800.885 693.27 817.659 475.926 1185.67 517.2C1553.68 558.474 1500.15 275.516 1427.39 128.878C1356.95 0.530148 1310.31 -254.978 1687.27 -250.23" stroke="#407478" stroke-width="1.09328"/>
<path d="M411.19 1522.96C372.347 1425.51 370.569 1208.35 674.202 1119.32C977.835 1030.29 947.03 861.368 893.673 788.038C818.167 694.137 835.049 478.348 1201.2 522.996C1567.34 567.643 1513.35 285.089 1440.59 138.231C1369.12 8.03278 1321.89 -250.136 1704.78 -241.223" stroke="#3C6E7B" stroke-width="1.09328"/>
<path d="M431.374 1527.32C393.011 1431.09 392.259 1215.24 696.155 1121.68C1000.05 1028.12 967.381 859.855 913.058 787.416C835.453 695.095 852.442 480.86 1216.73 528.881C1581.02 576.902 1526.56 294.752 1453.8 147.674C1381.29 15.6248 1333.47 -245.205 1722.29 -232.127" stroke="#38697F" stroke-width="1.09328"/>
<path d="M451.564 1531.76C413.681 1436.75 413.955 1222.21 718.116 1124.13C1022.28 1026.05 987.739 858.426 932.45 786.877C852.745 696.135 869.842 483.456 1232.27 534.851C1594.7 586.245 1539.78 304.499 1467.01 157.201C1393.47 23.3005 1345.06 -240.19 1739.81 -222.947" stroke="#346482" stroke-width="1.09328"/>
<path d="M471.762 1536.29C434.359 1442.49 435.66 1229.26 740.084 1126.65C1044.51 1024.04 1008.11 857.076 951.85 786.417C870.045 697.255 887.25 486.13 1247.82 540.898C1608.38 595.666 1553 314.324 1480.23 166.806C1405.65 31.0546 1356.66 -235.097 1757.34 -213.689" stroke="#2F5F85" stroke-width="1.09328"/>
<path d="M491.968 1540.88C455.045 1448.31 457.372 1236.39 762.06 1129.25C1066.75 1022.12 1028.48 855.799 971.258 786.031C887.353 698.448 904.665 488.878 1263.37 547.02C1622.08 605.162 1566.23 324.223 1493.46 176.485C1417.85 38.8827 1368.27 -229.93 1774.87 -204.357" stroke="#2B5989" stroke-width="1.09328"/>
<path d="M109.163 1461.1C63.118 1345.34 45.9472 1108.53 345.623 1087.39C645.3 1066.24 642.486 887.571 603.62 800.878C559.611 683.29 574.879 444.178 968.931 438.222C1362.98 432.267 1315.97 143.656 1243.21 0.0952667C1187.26 -102.337 1148.87 -320.593 1442.84 -374.153" stroke="#7BBE49" stroke-width="1.09328"/>
<path d="M129.256 1465.21C83.6913 1350.67 67.5466 1115.17 367.487 1089.5C667.427 1063.83 662.747 885.81 622.915 800.007C576.806 683.998 592.182 446.441 984.374 443.859C1376.57 441.277 1329.09 153.07 1256.32 9.28939C1199.34 -94.9943 1160.36 -315.911 1460.26 -365.306" stroke="#77B84D" stroke-width="1.09328"/>
<path d="M149.354 1469.32C104.27 1356 89.1512 1121.81 389.355 1091.61C689.559 1061.42 683.013 884.048 642.215 799.136C594.007 684.707 609.489 448.704 999.821 449.496C1390.15 450.287 1342.21 162.484 1269.44 18.4835C1211.43 -87.6513 1171.86 -311.228 1477.69 -356.459" stroke="#72B350" stroke-width="1.09328"/>
<path d="M169.457 1473.43C124.852 1361.33 110.76 1128.45 411.228 1093.73C711.695 1059.01 703.283 882.286 661.519 798.265C611.211 685.415 626.801 450.967 1015.27 455.132C1403.74 459.297 1355.33 171.898 1282.57 27.6775C1223.52 -80.3084 1183.36 -306.546 1495.12 -347.612" stroke="#6EAE53" stroke-width="1.09328"/>
<path d="M189.567 1477.54C145.443 1366.66 132.377 1135.09 433.108 1095.84C733.84 1056.6 723.562 880.524 680.831 797.394C628.423 686.123 644.122 453.23 1030.73 460.769C1417.34 468.307 1368.47 181.312 1295.71 36.8716C1235.62 -72.9653 1194.87 -301.864 1512.56 -338.765" stroke="#6AA957" stroke-width="1.09328"/>
<path d="M209.685 1481.64C166.041 1371.99 154.001 1141.73 454.996 1097.96C755.991 1054.18 743.847 878.762 700.151 796.523C645.643 686.831 661.449 455.493 1046.2 466.405C1430.95 477.317 1381.61 190.725 1308.85 46.0656C1247.73 -65.6223 1206.39 -297.182 1530 -329.918" stroke="#66A35A" stroke-width="1.09328"/>
<path d="M229.806 1485.75C186.642 1377.32 175.628 1148.37 476.887 1100.07C778.146 1051.77 764.136 877 719.473 795.652C662.866 687.539 678.779 457.756 1061.67 472.042C1444.56 486.327 1394.76 200.139 1321.99 55.2597C1259.84 -58.2793 1217.91 -292.5 1547.45 -321.071" stroke="#629E5D" stroke-width="1.09328"/>
<path d="M249.933 1489.86C207.249 1382.65 197.261 1155.01 498.784 1102.18C800.307 1049.36 784.431 875.239 738.802 794.781C680.095 688.247 696.116 460.019 1077.15 477.678C1458.18 495.338 1407.91 209.553 1335.14 64.4539C1271.95 -50.9362 1229.44 -287.818 1564.9 -312.224" stroke="#5D9961" stroke-width="1.09328"/>
<path d="M270.071 1493.97C227.867 1387.98 218.906 1161.65 520.692 1104.3C822.479 1046.95 804.737 873.476 758.142 793.91C697.335 688.955 713.463 462.282 1092.63 483.315C1471.8 504.347 1421.07 218.967 1348.3 73.6478C1284.08 -43.5933 1240.98 -283.136 1582.37 -303.377" stroke="#599364" stroke-width="1.09328"/>
<path d="M290.211 1498.08C248.487 1393.31 240.552 1168.29 542.602 1106.41C844.652 1044.53 825.044 871.715 777.483 793.039C714.577 689.664 730.813 464.545 1108.12 488.952C1485.43 513.358 1434.23 228.381 1361.47 82.842C1296.21 -36.2502 1252.51 -278.454 1599.84 -294.53" stroke="#558E67" stroke-width="1.09328"/>
<path d="M310.357 1502.19C269.113 1398.64 262.204 1174.93 564.518 1108.52C866.832 1042.12 845.358 869.953 796.831 792.168C731.824 690.372 748.168 466.808 1123.62 494.588C1499.07 522.368 1447.4 237.795 1374.64 92.036C1308.34 -28.9072 1264.06 -273.772 1617.31 -285.683" stroke="#51896B" stroke-width="1.09328"/>
<path d="M330.511 1506.3C289.747 1403.97 283.864 1181.57 586.442 1110.64C889.02 1039.71 865.679 868.191 816.187 791.297C749.08 691.08 765.532 469.071 1139.12 500.225C1512.71 531.378 1460.58 247.209 1387.82 101.23C1320.48 -21.5642 1275.61 -269.089 1634.79 -276.836" stroke="#4D846E" stroke-width="1.09328"/>
<path d="M350.672 1510.41C310.389 1409.3 305.532 1188.21 608.373 1112.75C911.215 1037.3 886.008 866.429 835.55 790.426C766.344 691.788 782.902 471.334 1154.63 505.861C1526.36 540.388 1473.76 256.623 1401 110.424C1332.63 -14.2211 1287.17 -264.407 1652.28 -267.989" stroke="#497E71" stroke-width="1.09328"/>
<path d="M370.837 1514.52C331.033 1414.63 327.203 1194.85 630.308 1114.87C933.414 1034.89 906.341 864.668 854.916 789.556C783.61 692.497 800.277 473.599 1170.14 511.499C1540.01 549.399 1486.95 266.038 1414.19 119.619C1344.79 -6.87715 1298.74 -259.724 1669.77 -259.141" stroke="#447975" stroke-width="1.09328"/>
<path d="M391.01 1518.69C351.686 1420.02 348.882 1201.55 652.251 1117.05C955.62 1032.54 926.682 862.971 874.291 788.749C800.885 693.27 817.659 475.926 1185.67 517.2C1553.68 558.474 1500.15 275.516 1427.39 128.878C1356.95 0.530148 1310.31 -254.978 1687.27 -250.23" stroke="#407478" stroke-width="1.09328"/>
<path d="M411.19 1522.96C372.347 1425.51 370.569 1208.35 674.202 1119.32C977.835 1030.29 947.03 861.368 893.673 788.038C818.167 694.137 835.049 478.348 1201.2 522.996C1567.34 567.643 1513.35 285.089 1440.59 138.231C1369.12 8.03278 1321.89 -250.136 1704.78 -241.223" stroke="#3C6E7B" stroke-width="1.09328"/>
<path d="M431.374 1527.32C393.011 1431.09 392.259 1215.24 696.155 1121.68C1000.05 1028.12 967.381 859.855 913.058 787.416C835.453 695.095 852.442 480.86 1216.73 528.881C1581.02 576.902 1526.56 294.752 1453.8 147.674C1381.29 15.6248 1333.47 -245.205 1722.29 -232.127" stroke="#38697F" stroke-width="1.09328"/>
<path d="M451.564 1531.76C413.681 1436.75 413.955 1222.21 718.116 1124.13C1022.28 1026.05 987.739 858.426 932.45 786.877C852.745 696.135 869.842 483.456 1232.27 534.851C1594.7 586.245 1539.78 304.499 1467.01 157.201C1393.47 23.3005 1345.06 -240.19 1739.81 -222.947" stroke="#346482" stroke-width="1.09328"/>
<path d="M471.762 1536.29C434.359 1442.49 435.66 1229.26 740.084 1126.65C1044.51 1024.04 1008.11 857.076 951.85 786.417C870.045 697.255 887.25 486.13 1247.82 540.898C1608.38 595.666 1553 314.324 1480.23 166.806C1405.65 31.0546 1356.66 -235.097 1757.34 -213.689" stroke="#2F5F85" stroke-width="1.09328"/>
<path d="M491.968 1540.88C455.045 1448.31 457.372 1236.39 762.06 1129.25C1066.75 1022.12 1028.48 855.799 971.258 786.031C887.353 698.448 904.665 488.878 1263.37 547.02C1622.08 605.162 1566.23 324.223 1493.46 176.485C1417.85 38.8827 1368.27 -229.93 1774.87 -204.357" stroke="#2B5989" stroke-width="1.09328"/>
</g>
<defs>
<clipPath id="clip0_193_4921">
<rect width="1730" height="1445" fill="white" transform="translate(0 -383)"/>
</clipPath>
</defs>
</svg>
