<svg width="56" height="55" viewBox="0 0 56 55" fill="none" xmlns="http://www.w3.org/2000/svg">
<path d="M10.0885 38.0273C7.52944 33.7099 6.63432 28.6068 7.57116 23.6761C8.508 18.7454 11.2124 14.3262 15.1766 11.2482C19.1408 8.17015 24.0922 6.64492 29.1012 6.95884C34.1103 7.27276 38.8325 9.40424 42.3814 12.9531C45.9303 16.502 48.0618 21.2243 48.3757 26.2333C48.6896 31.2424 47.1644 36.1938 44.0864 40.158C41.0083 44.1222 36.5891 46.8266 31.6585 47.7634C26.7278 48.7002 21.6247 47.8051 17.3072 45.2461V45.2461L10.1744 47.2656C9.88217 47.3511 9.57233 47.3564 9.27734 47.2809C8.98236 47.2055 8.71311 47.052 8.49781 46.8367C8.28251 46.6215 8.1291 46.3522 8.05364 46.0572C7.97818 45.7622 7.98347 45.4524 8.06894 45.1602L10.0885 38.0273Z" stroke="white" stroke-width="1.5" stroke-linecap="round" stroke-linejoin="round"/>
<path d="M27.834 30.0781C29.2578 30.0781 30.4121 28.9239 30.4121 27.5C30.4121 26.0761 29.2578 24.9219 27.834 24.9219C26.4101 24.9219 25.2559 26.0761 25.2559 27.5C25.2559 28.9239 26.4101 30.0781 27.834 30.0781Z" fill="white"/>
<path d="M17.5215 30.0781C18.9453 30.0781 20.0996 28.9239 20.0996 27.5C20.0996 26.0761 18.9453 24.9219 17.5215 24.9219C16.0976 24.9219 14.9434 26.0761 14.9434 27.5C14.9434 28.9239 16.0976 30.0781 17.5215 30.0781Z" fill="white"/>
<path d="M38.1465 30.0781C39.5703 30.0781 40.7246 28.9239 40.7246 27.5C40.7246 26.0761 39.5703 24.9219 38.1465 24.9219C36.7226 24.9219 35.5684 26.0761 35.5684 27.5C35.5684 28.9239 36.7226 30.0781 38.1465 30.0781Z" fill="white"/>
</svg>
