<svg width="72" height="59" viewBox="0 0 72 59" fill="none" xmlns="http://www.w3.org/2000/svg">
<path d="M40.6667 50.3333C40.6667 49.2 40.5001 51.1 40.6667 50H4.3335V19H63.3335V29.5C65.6668 29.5 66.3335 29.5 67.3334 31.5V6.99999C67.3334 3.29999 64.3667 0.333328 60.6667 0.333328H7.33341C3.63341 0.333328 0.666748 3.29999 0.666748 6.99999V47C0.666748 50.6667 3.63341 53.6667 7.33341 53.6667H40.9667C40.8001 52.5667 40.6667 51.4667 40.6667 50.3333ZM4.3335 4.50002H63.3335V12.5H4.3335V4.50002ZM56.8335 58.5L47.8335 50L51.2001 46.4667L56.5001 51.7667L68.4667 39.8L71.8335 43L56.8335 58.5Z" fill="white"/>
</svg>
