<svg width="71" height="58" viewBox="0 0 71 58" fill="none" xmlns="http://www.w3.org/2000/svg">
<path d="M38.6667 51.1667L58.6667 31L64.1667 36L43.6667 56L37.3334 57.1667L38.6667 51.1667ZM66.1667 25.5L69.9678 29.1667C70.6345 29.8334 70.3334 30.8334 69.6667 31.5L66.3334 34.8334L60.1667 29.1667L63.6667 25.5C64.0001 25.1667 64.4375 25 64.6667 25C64.896 25 65.6667 25 66.1667 25.5ZM30.6667 50H4.16675V19H50.6667L67.3334 10.8333V7.16668C67.3334 3.50002 64.3334 0.500015 60.6667 0.500015H7.33341C3.66675 0.500015 0.666748 3.50002 0.666748 7.16668V47.1667C0.666748 50.8334 3.66675 53.8334 7.33341 53.8334H30.6667V50ZM4.16675 4.00002L63.6667 4.50002V12.5H4.16675V4.00002Z" fill="white"/>
</svg>
