<svg width="72" height="59" viewBox="0 0 72 59" fill="none" xmlns="http://www.w3.org/2000/svg">
<path d="M67.3439 12.5V4.56679H16.0001V12.5H67.3439ZM67.3439 42.5V19H16.0001V42.5H67.3439ZM65.0001 0.333328C66.7682 0.333328 68.4639 1.03571 69.7141 2.28595C70.9643 3.53619 71.6667 5.23188 71.6667 6.99999V40.3333C71.6667 42.1014 70.9643 43.7971 69.7141 45.0474C68.4639 46.2976 66.7682 47 65.0001 47H18.3334C14.6334 47 11.6667 44 11.6667 40.3333V6.99999C11.6667 3.29999 14.6334 0.333328 18.3334 0.333328H65.0001ZM5.00004 53.6667H55V58.3807H5.00004C3.23193 58.3807 3.00012 58.5 1.50012 57.5C0.548846 56.8658 0.500122 55.4348 0.500122 53.6667L0.500125 17H5.00004V53.6667Z" fill="white"/>
</svg>
