<svg width="132" height="40" viewBox="0 0 132 40" fill="none" xmlns="http://www.w3.org/2000/svg">
<g clip-path="url(#clip0_64_774)">
<path d="M0 0.479492H8.49335V22.2555H20.7327L15.5816 29.9572H0V0.479492Z" fill="white"/>
<path d="M95.4506 29.9546L88.9547 19.3798L85.6649 23.1258V29.9546H77.1715V0.479492H85.6649V4.81005C85.6649 7.26631 85.4578 10.8891 85.2481 13.3453H85.3319C86.7055 11.1381 87.8301 9.55741 89.4947 7.51534L95.157 0.479492H105.357L94.7402 12.7608L105.606 29.9546H95.4479H95.4506Z" fill="white"/>
<path d="M131.125 29.2048L130.834 29.9546H121.84L115.179 19.7127H113.806V29.9546H105.145V0.479492H116.511C124.422 0.479492 128.294 3.76935 128.294 10.3465C128.294 14.1344 126.588 16.8423 123.466 18.2998L131.125 29.2075V29.2048ZM113.806 7.26369V13.3847H116.22C118.76 13.3847 120.092 12.3859 120.092 10.3465C120.092 8.307 118.76 7.26631 116.22 7.26631H113.806V7.26369Z" fill="white"/>
<path d="M34.1543 0.749512C24.9531 0.749512 18.6251 7.65953 18.6251 16.4465C18.6251 22.0248 20.9974 26.8954 25.8706 29.6872L29.8263 23.1494L29.7293 22.5412C29.1631 22.1428 28.6493 21.6709 28.2089 21.1362C27.5929 20.4756 27.1656 19.7337 26.9218 18.8896C26.6177 18.0639 26.4526 17.17 26.4526 16.2394C26.4526 11.9848 29.9023 8.5377 34.1543 8.5377C38.4062 8.5377 41.8559 11.9875 41.8559 16.2394C41.8559 17.4216 41.5886 18.5436 41.1115 19.545C40.9725 19.8543 40.8074 20.1505 40.6134 20.431C40.0734 21.2594 39.3787 21.9803 38.5713 22.5465L38.4822 23.1075L42.3959 29.6452C47.3085 26.94 49.6808 22.0248 49.6808 16.4884C49.6808 7.74604 43.4786 0.749512 34.1516 0.749512H34.1543Z" fill="white"/>
<path d="M70.9955 19.8599L70.5682 19.928C69.1762 21.9151 66.8694 23.2153 64.2585 23.2153C60.0039 23.2153 56.5568 19.7655 56.5568 15.5136C56.5568 11.2617 60.0066 7.81191 64.2585 7.81191C66.8904 7.81191 69.2129 9.1331 70.6023 11.149L70.9535 11.204L77.4913 7.29025C74.786 2.37774 69.8709 0.00537109 64.3345 0.00537109C55.5921 0.00537109 48.5956 6.20761 48.5956 15.5346C48.5956 24.8615 55.5056 31.0638 64.2925 31.0638C69.8709 31.0638 74.7415 28.6914 77.5333 23.8182L70.9955 19.8625V19.8599Z" fill="white"/>
<path d="M42.4432 29.7476C40.0315 31.2313 37.1925 32.0885 34.1543 32.0885C31.1161 32.0885 28.2981 31.2391 25.8916 29.7659L21.8468 36.5711C25.522 38.8045 29.7477 39.9999 34.1569 39.9999C38.5661 39.9999 42.818 38.7966 46.5011 36.5501L42.4458 29.7476H42.4432Z" fill="#FF4513"/>
</g>
<defs>
<clipPath id="clip0_64_774">
<rect width="131.125" height="40" fill="white"/>
</clipPath>
</defs>
</svg>
