<svg width="1730" height="940" viewBox="0 0 1730 940" fill="none" xmlns="http://www.w3.org/2000/svg">
<g clip-path="url(#clip0_2_27)">
<path d="M89.0789 1334.99C42.5539 1218.01 24.3569 979.891 323.769 963.273C623.182 946.655 622.235 767.333 584.334 679.75C542.425 560.582 557.585 319.915 953.498 310.586C1349.41 301.257 1302.86 12.2423 1230.1 -131.099C1175.19 -231.68 1137.39 -447.275 1425.43 -505" stroke="#7FC346" stroke-width="1.09328"/>
<path d="M512.177 1423.54C475.734 1332.19 479.087 1121.58 784.039 1009.92C1088.99 898.259 1048.86 732.591 990.669 663.715C904.664 577.71 922.084 369.696 1278.93 431.211C1635.78 492.726 1579.46 212.191 1506.7 64.2336C1430.05 -75.2201 1379.88 -346.693 1792.41 -316.956" stroke="#27548C" stroke-width="1.09328"/>
<path d="M109.163 1339.1C63.1181 1223.34 45.9473 986.531 345.624 965.387C645.3 944.243 642.486 765.571 603.62 678.878C559.611 561.29 574.879 322.178 968.931 316.222C1362.98 310.267 1315.97 21.656 1243.21 -121.905C1187.26 -224.337 1148.87 -442.593 1442.84 -496.153" stroke="#7BBE49" stroke-width="1.09328"/>
<path d="M129.256 1343.21C83.6909 1228.67 67.5462 993.17 367.486 967.501C667.426 941.831 662.747 763.81 622.915 678.007C576.806 561.998 592.181 324.441 984.373 321.859C1376.57 319.277 1329.09 31.07 1256.32 -112.711C1199.34 -216.994 1160.36 -437.911 1460.26 -487.306" stroke="#77B84D" stroke-width="1.09328"/>
<path d="M149.354 1347.32C104.27 1234 89.1512 999.81 389.355 969.614C689.559 939.419 683.013 762.048 642.215 677.136C594.007 562.707 609.489 326.704 999.821 327.496C1390.15 328.287 1342.21 40.4839 1269.44 -103.516C1211.43 -209.651 1171.86 -433.228 1477.69 -478.459" stroke="#72B350" stroke-width="1.09328"/>
<path d="M169.457 1351.43C124.852 1239.33 110.76 1006.45 411.228 971.728C711.695 937.007 703.283 760.286 661.519 676.265C611.211 563.415 626.801 328.967 1015.27 333.132C1403.74 337.297 1355.33 49.8977 1282.57 -94.3225C1223.52 -202.308 1183.36 -428.546 1495.12 -469.612" stroke="#6EAE53" stroke-width="1.09328"/>
<path d="M189.568 1355.54C145.443 1244.66 132.377 1013.09 433.109 973.842C733.84 934.595 723.562 758.524 680.832 675.394C628.424 564.123 644.122 331.23 1030.73 338.769C1417.34 346.307 1368.47 59.3116 1295.71 -85.1284C1235.62 -194.965 1194.87 -423.864 1512.56 -460.765" stroke="#6AA957" stroke-width="1.09328"/>
<path d="M209.685 1359.64C166.041 1249.99 154.001 1019.73 454.996 975.956C755.991 932.183 743.847 756.762 700.151 674.523C645.643 564.831 661.449 333.493 1046.2 344.405C1430.95 355.317 1381.61 68.7254 1308.85 -75.9344C1247.73 -187.622 1206.39 -419.182 1530 -451.918" stroke="#66A35A" stroke-width="1.09328"/>
<path d="M229.806 1363.75C186.642 1255.32 175.628 1026.37 476.887 978.069C778.146 929.771 764.136 755 719.473 673.652C662.866 565.539 678.779 335.756 1061.67 350.042C1444.56 364.327 1394.76 78.1394 1321.99 -66.7403C1259.84 -180.279 1217.91 -414.5 1547.45 -443.071" stroke="#629E5D" stroke-width="1.09328"/>
<path d="M249.933 1367.86C207.249 1260.65 197.261 1033.01 498.784 980.184C800.307 927.359 784.431 753.239 738.802 672.781C680.095 566.247 696.116 338.019 1077.15 355.678C1458.18 373.338 1407.91 87.5534 1335.14 -57.5461C1271.95 -172.936 1229.44 -409.818 1564.9 -434.224" stroke="#5D9961" stroke-width="1.09328"/>
<path d="M270.071 1371.97C227.867 1265.98 218.906 1039.65 520.692 982.297C822.479 924.947 804.736 751.476 758.142 671.91C697.335 566.955 713.463 340.282 1092.63 361.315C1471.8 382.347 1421.07 96.9671 1348.3 -48.3522C1284.08 -165.593 1240.98 -405.136 1582.37 -425.377" stroke="#599364" stroke-width="1.09328"/>
<path d="M290.211 1376.08C248.487 1271.31 240.552 1046.29 542.602 984.411C844.652 922.535 825.044 749.715 777.483 671.039C714.576 567.664 730.813 342.545 1108.12 366.952C1485.43 391.358 1434.23 106.381 1361.47 -39.158C1296.21 -158.25 1252.51 -400.454 1599.84 -416.53" stroke="#558E67" stroke-width="1.09328"/>
<path d="M310.357 1380.19C269.113 1276.64 262.204 1052.93 564.518 986.525C866.832 920.123 845.357 747.953 796.831 670.168C731.824 568.372 748.168 344.808 1123.62 372.588C1499.07 400.368 1447.4 115.795 1374.64 -29.964C1308.34 -150.907 1264.06 -395.772 1617.31 -407.683" stroke="#51896B" stroke-width="1.09328"/>
<path d="M330.511 1384.3C289.747 1281.97 283.864 1059.57 586.442 988.638C889.02 917.711 865.68 746.191 816.187 669.297C749.081 569.08 765.532 347.071 1139.12 378.225C1512.71 409.378 1460.58 125.209 1387.82 -20.7699C1320.48 -143.564 1275.61 -391.089 1634.79 -398.836" stroke="#4D846E" stroke-width="1.09328"/>
<path d="M350.672 1388.41C310.388 1287.3 305.532 1066.21 608.373 990.752C911.215 915.299 886.008 744.429 835.55 668.426C766.343 569.788 782.902 349.334 1154.63 383.861C1526.36 418.388 1473.76 134.623 1401 -11.5758C1332.63 -136.221 1287.17 -386.407 1652.28 -389.989" stroke="#497E71" stroke-width="1.09328"/>
<path d="M370.837 1392.52C331.033 1292.63 327.203 1072.85 630.308 992.867C933.413 912.888 906.341 742.668 854.916 667.556C783.61 570.497 800.276 351.599 1170.14 389.499C1540.01 427.399 1486.95 144.038 1414.19 -2.38076C1344.79 -128.877 1298.74 -381.724 1669.77 -381.141" stroke="#447975" stroke-width="1.09328"/>
<path d="M391.01 1396.69C351.687 1298.02 348.882 1079.55 652.252 995.045C955.621 910.54 926.682 740.971 874.291 666.749C800.885 571.27 817.659 353.926 1185.67 395.2C1553.68 436.474 1500.15 153.516 1427.39 6.87758C1356.95 -121.47 1310.31 -376.978 1687.27 -372.23" stroke="#407478" stroke-width="1.09328"/>
<path d="M411.19 1400.96C372.346 1303.51 370.568 1086.35 674.201 997.319C977.834 908.287 947.029 739.368 893.673 666.038C818.167 572.138 835.049 356.349 1201.2 400.996C1567.34 445.643 1513.35 163.089 1440.59 16.2314C1369.12 -113.967 1321.89 -372.136 1704.78 -363.223" stroke="#3C6E7B" stroke-width="1.09328"/>
<path d="M431.373 1405.32C393.01 1309.09 392.258 1093.24 696.155 999.681C1000.05 906.124 967.381 737.855 913.058 665.416C835.453 573.095 852.442 358.86 1216.73 406.881C1581.02 454.902 1526.56 172.752 1453.8 25.6744C1381.29 -106.375 1333.47 -367.205 1722.29 -354.127" stroke="#38697F" stroke-width="1.09328"/>
<path d="M451.564 1409.76C413.681 1314.75 413.955 1100.21 718.115 1002.13C1022.28 904.045 987.739 736.426 932.45 664.877C852.745 574.135 869.842 361.456 1232.27 412.851C1594.7 464.245 1539.78 182.499 1467.01 35.2011C1393.47 -98.6995 1345.06 -362.19 1739.81 -344.947" stroke="#346482" stroke-width="1.09328"/>
<path d="M471.762 1414.29C434.36 1320.49 435.66 1107.26 740.084 1004.65C1044.51 902.044 1008.11 735.076 951.851 664.417C870.046 575.255 887.25 364.13 1247.82 418.898C1608.38 473.666 1553 192.324 1480.23 44.8063C1405.65 -90.9453 1356.66 -357.097 1757.34 -335.689" stroke="#2F5F85" stroke-width="1.09328"/>
<path d="M491.968 1418.88C455.045 1326.31 457.371 1114.39 762.059 1007.25C1066.75 900.117 1028.48 733.799 971.258 664.031C887.353 576.448 904.665 366.878 1263.37 425.02C1622.08 483.162 1566.23 202.223 1493.46 54.4854C1417.85 -83.1173 1368.27 -351.93 1774.87 -326.357" stroke="#2B5989" stroke-width="1.09328"/>
<path d="M109.163 1339.1C63.1181 1223.34 45.9473 986.531 345.624 965.387C645.3 944.243 642.486 765.571 603.62 678.878C559.611 561.29 574.879 322.178 968.931 316.222C1362.98 310.267 1315.97 21.656 1243.21 -121.905C1187.26 -224.337 1148.87 -442.593 1442.84 -496.153" stroke="#7BBE49" stroke-width="1.09328"/>
<path d="M129.256 1343.21C83.6909 1228.67 67.5462 993.17 367.486 967.501C667.426 941.831 662.747 763.81 622.915 678.007C576.806 561.998 592.181 324.441 984.373 321.859C1376.57 319.277 1329.09 31.07 1256.32 -112.711C1199.34 -216.994 1160.36 -437.911 1460.26 -487.306" stroke="#77B84D" stroke-width="1.09328"/>
<path d="M149.354 1347.32C104.27 1234 89.1512 999.81 389.355 969.614C689.559 939.419 683.013 762.048 642.215 677.136C594.007 562.707 609.489 326.704 999.821 327.496C1390.15 328.287 1342.21 40.4839 1269.44 -103.516C1211.43 -209.651 1171.86 -433.228 1477.69 -478.459" stroke="#72B350" stroke-width="1.09328"/>
<path d="M169.457 1351.43C124.852 1239.33 110.76 1006.45 411.228 971.728C711.695 937.007 703.283 760.286 661.519 676.265C611.211 563.415 626.801 328.967 1015.27 333.132C1403.74 337.297 1355.33 49.8977 1282.57 -94.3225C1223.52 -202.308 1183.36 -428.546 1495.12 -469.612" stroke="#6EAE53" stroke-width="1.09328"/>
<path d="M189.568 1355.54C145.443 1244.66 132.377 1013.09 433.109 973.842C733.84 934.595 723.562 758.524 680.832 675.394C628.424 564.123 644.122 331.23 1030.73 338.769C1417.34 346.307 1368.47 59.3116 1295.71 -85.1284C1235.62 -194.965 1194.87 -423.864 1512.56 -460.765" stroke="#6AA957" stroke-width="1.09328"/>
<path d="M209.685 1359.64C166.041 1249.99 154.001 1019.73 454.996 975.956C755.991 932.183 743.847 756.762 700.151 674.523C645.643 564.831 661.449 333.493 1046.2 344.405C1430.95 355.317 1381.61 68.7254 1308.85 -75.9344C1247.73 -187.622 1206.39 -419.182 1530 -451.918" stroke="#66A35A" stroke-width="1.09328"/>
<path d="M229.806 1363.75C186.642 1255.32 175.628 1026.37 476.887 978.069C778.146 929.771 764.136 755 719.473 673.652C662.866 565.539 678.779 335.756 1061.67 350.042C1444.56 364.327 1394.76 78.1394 1321.99 -66.7403C1259.84 -180.279 1217.91 -414.5 1547.45 -443.071" stroke="#629E5D" stroke-width="1.09328"/>
<path d="M249.933 1367.86C207.249 1260.65 197.261 1033.01 498.784 980.184C800.307 927.359 784.431 753.239 738.802 672.781C680.095 566.247 696.116 338.019 1077.15 355.678C1458.18 373.338 1407.91 87.5534 1335.14 -57.5461C1271.95 -172.936 1229.44 -409.818 1564.9 -434.224" stroke="#5D9961" stroke-width="1.09328"/>
<path d="M270.071 1371.97C227.867 1265.98 218.906 1039.65 520.692 982.297C822.479 924.947 804.736 751.476 758.142 671.91C697.335 566.955 713.463 340.282 1092.63 361.315C1471.8 382.347 1421.07 96.9671 1348.3 -48.3522C1284.08 -165.593 1240.98 -405.136 1582.37 -425.377" stroke="#599364" stroke-width="1.09328"/>
<path d="M290.211 1376.08C248.487 1271.31 240.552 1046.29 542.602 984.411C844.652 922.535 825.044 749.715 777.483 671.039C714.576 567.664 730.813 342.545 1108.12 366.952C1485.43 391.358 1434.23 106.381 1361.47 -39.158C1296.21 -158.25 1252.51 -400.454 1599.84 -416.53" stroke="#558E67" stroke-width="1.09328"/>
<path d="M310.357 1380.19C269.113 1276.64 262.204 1052.93 564.518 986.525C866.832 920.123 845.357 747.953 796.831 670.168C731.824 568.372 748.168 344.808 1123.62 372.588C1499.07 400.368 1447.4 115.795 1374.64 -29.964C1308.34 -150.907 1264.06 -395.772 1617.31 -407.683" stroke="#51896B" stroke-width="1.09328"/>
<path d="M330.511 1384.3C289.747 1281.97 283.864 1059.57 586.442 988.638C889.02 917.711 865.68 746.191 816.187 669.297C749.081 569.08 765.532 347.071 1139.12 378.225C1512.71 409.378 1460.58 125.209 1387.82 -20.7699C1320.48 -143.564 1275.61 -391.089 1634.79 -398.836" stroke="#4D846E" stroke-width="1.09328"/>
<path d="M350.672 1388.41C310.388 1287.3 305.532 1066.21 608.373 990.752C911.215 915.299 886.008 744.429 835.55 668.426C766.343 569.788 782.902 349.334 1154.63 383.861C1526.36 418.388 1473.76 134.623 1401 -11.5758C1332.63 -136.221 1287.17 -386.407 1652.28 -389.989" stroke="#497E71" stroke-width="1.09328"/>
<path d="M370.837 1392.52C331.033 1292.63 327.203 1072.85 630.308 992.867C933.413 912.888 906.341 742.668 854.916 667.556C783.61 570.497 800.276 351.599 1170.14 389.499C1540.01 427.399 1486.95 144.038 1414.19 -2.38076C1344.79 -128.877 1298.74 -381.724 1669.77 -381.141" stroke="#447975" stroke-width="1.09328"/>
<path d="M391.01 1396.69C351.687 1298.02 348.882 1079.55 652.252 995.045C955.621 910.54 926.682 740.971 874.291 666.749C800.885 571.27 817.659 353.926 1185.67 395.2C1553.68 436.474 1500.15 153.516 1427.39 6.87758C1356.95 -121.47 1310.31 -376.978 1687.27 -372.23" stroke="#407478" stroke-width="1.09328"/>
<path d="M411.19 1400.96C372.346 1303.51 370.568 1086.35 674.201 997.319C977.834 908.287 947.029 739.368 893.673 666.038C818.167 572.138 835.049 356.349 1201.2 400.996C1567.34 445.643 1513.35 163.089 1440.59 16.2314C1369.12 -113.967 1321.89 -372.136 1704.78 -363.223" stroke="#3C6E7B" stroke-width="1.09328"/>
<path d="M431.373 1405.32C393.01 1309.09 392.258 1093.24 696.155 999.681C1000.05 906.124 967.381 737.855 913.058 665.416C835.453 573.095 852.442 358.86 1216.73 406.881C1581.02 454.902 1526.56 172.752 1453.8 25.6744C1381.29 -106.375 1333.47 -367.205 1722.29 -354.127" stroke="#38697F" stroke-width="1.09328"/>
<path d="M451.564 1409.76C413.681 1314.75 413.955 1100.21 718.115 1002.13C1022.28 904.045 987.739 736.426 932.45 664.877C852.745 574.135 869.842 361.456 1232.27 412.851C1594.7 464.245 1539.78 182.499 1467.01 35.2011C1393.47 -98.6995 1345.06 -362.19 1739.81 -344.947" stroke="#346482" stroke-width="1.09328"/>
<path d="M471.762 1414.29C434.36 1320.49 435.66 1107.26 740.084 1004.65C1044.51 902.044 1008.11 735.076 951.851 664.417C870.046 575.255 887.25 364.13 1247.82 418.898C1608.38 473.666 1553 192.324 1480.23 44.8063C1405.65 -90.9453 1356.66 -357.097 1757.34 -335.689" stroke="#2F5F85" stroke-width="1.09328"/>
<path d="M491.968 1418.88C455.045 1326.31 457.371 1114.39 762.059 1007.25C1066.75 900.117 1028.48 733.799 971.258 664.031C887.353 576.448 904.665 366.878 1263.37 425.02C1622.08 483.162 1566.23 202.223 1493.46 54.4854C1417.85 -83.1173 1368.27 -351.93 1774.87 -326.357" stroke="#2B5989" stroke-width="1.09328"/>
</g>
<defs>
<clipPath id="clip0_2_27">
<rect width="1730" height="1445" fill="white" transform="translate(0 -505)"/>
</clipPath>
</defs>
</svg>
