<svg width="1711" height="1080" viewBox="0 0 1711 1080" fill="none" xmlns="http://www.w3.org/2000/svg">
<path fill-rule="evenodd" clip-rule="evenodd" d="M1130.33 -327.212C1110.23 -253.336 1133.75 -173.314 1161.69 -122.167L1161.69 -122.159L1161.69 -122.152C1198.1 -50.3181 1228.12 57.8832 1199.65 148.924C1185.4 194.466 1156.53 235.698 1106.54 265.909C1056.57 296.112 985.515 315.279 886.94 316.769C690.017 319.745 587.902 380.974 540.465 455.98C493.015 531.007 500.166 619.983 522.126 678.671C541.598 722.114 552.058 788.636 520.055 846.977C488.032 905.352 413.598 955.353 263.662 965.932C188.813 971.213 133.797 989.957 94.0824 1016.87C54.3732 1043.79 29.9321 1078.89 16.2624 1116.95C-11.0869 1193.09 4.67568 1281.08 27.6711 1338.9L26.6552 1339.3C3.60571 1281.35 -12.2396 1193.06 15.2335 1116.58C28.975 1078.32 53.5527 1043.02 93.469 1015.97C133.38 988.918 188.596 970.132 263.585 964.842C413.326 954.277 487.323 904.371 519.096 846.451C550.884 788.503 540.512 722.353 521.121 679.102L521.114 679.086L521.108 679.07C499.064 620.17 491.85 530.805 539.541 455.396C587.249 379.961 689.794 318.655 886.923 315.676C985.374 314.188 1056.22 295.045 1105.98 264.973C1155.73 234.907 1184.44 193.898 1198.6 148.598C1226.95 57.9571 1197.07 -49.9227 1160.72 -121.65C1132.71 -172.935 1109.07 -253.253 1129.28 -327.5C1149.5 -401.818 1213.61 -469.884 1360.74 -496.691L1360.94 -495.615C1214.1 -468.862 1150.42 -401.02 1130.33 -327.212ZM1425.18 63.9704C1406.03 29.1465 1388.55 -13.9163 1379.52 -58.4496C1370.5 -102.986 1369.95 -148.956 1384.62 -189.622C1399.29 -230.27 1429.19 -265.664 1481.17 -289.053C1533.17 -312.45 1607.29 -323.842 1710.37 -316.411L1710.45 -317.501C1607.26 -324.939 1532.95 -313.548 1480.72 -290.05C1428.48 -266.543 1398.37 -230.929 1383.59 -189.993C1368.83 -149.077 1369.4 -102.889 1378.45 -58.2325C1387.5 -13.5776 1405.03 29.5844 1424.21 64.4852C1442.38 101.44 1459.53 146.669 1469.45 192.759C1479.38 238.86 1482.07 285.78 1471.39 326.134C1460.71 366.466 1436.67 400.246 1393.07 420.131C1349.44 440.029 1286.18 446.041 1197.02 430.672C1018.54 399.905 924.681 436.493 886.281 491.831C847.889 547.158 865.137 620.942 908.266 664.085C937.269 698.426 961.744 756.86 941.011 820.604C920.274 884.359 854.255 953.602 701.851 1009.41C549.267 1065.28 472.059 1145.93 437.585 1224.13C403.118 1302.3 411.399 1377.95 429.669 1423.75L430.685 1423.34C412.512 1377.79 404.249 1302.45 438.585 1224.57C472.915 1146.7 549.859 1066.22 702.227 1010.43C854.775 954.576 921.164 885.156 942.051 820.942C962.937 756.728 938.264 697.9 909.086 663.362L909.071 663.344L909.055 663.328C866.192 620.465 849.156 547.251 887.179 492.455C925.2 437.663 1018.47 401.002 1196.84 431.749C1286.1 447.138 1349.62 441.151 1393.52 421.126C1437.45 401.088 1461.69 367.022 1472.45 326.414C1483.19 285.829 1480.47 238.719 1470.52 192.529C1460.57 146.332 1443.39 101.015 1425.19 63.9924L1425.18 63.9813L1425.18 63.9704ZM1174.8 -112.973C1146.35 -165.047 1122.42 -246.196 1142.99 -320.446C1163.54 -394.624 1228.55 -462.093 1378.35 -486.767L1378.17 -487.845C1228.08 -463.124 1162.63 -395.437 1141.94 -320.737C1121.27 -246.113 1145.31 -164.667 1173.84 -112.457C1210.19 -40.6186 1240.18 67.216 1212.18 157.361C1198.19 202.413 1169.72 243.062 1120.27 272.618C1070.82 302.181 1000.36 320.667 902.37 321.312C706.172 322.604 604.061 382.675 556.82 457.105C509.595 531.509 517.309 620.095 540.407 678.209L540.412 678.224L540.419 678.238C560.29 721.042 571.369 786.807 540.133 845.045C508.912 903.257 435.313 954.13 285.44 966.956C210.385 973.379 155.058 992.933 115.008 1020.48C74.954 1048.02 50.2092 1083.54 36.2929 1121.84C8.46983 1198.41 23.9374 1286.07 46.7478 1343.41L47.7637 1343C25.0092 1285.81 9.6221 1198.44 37.3205 1122.21C51.165 1084.11 75.775 1048.79 115.628 1021.38C155.485 993.966 210.618 974.457 285.533 968.045C435.599 955.202 509.631 904.229 541.097 845.562C572.545 786.928 561.374 720.789 541.417 677.792C518.411 619.897 510.763 531.708 557.743 457.691C604.709 383.695 706.383 323.696 902.377 322.406C1000.49 321.76 1071.16 303.251 1120.83 273.556C1170.52 243.855 1199.16 202.981 1213.23 157.686C1241.35 67.14 1211.22 -41.0151 1174.81 -112.957L1174.81 -112.965L1174.8 -112.973ZM1155.65 -313.679C1134.62 -239.055 1158.95 -156.78 1187.92 -103.779L1187.93 -103.771L1187.93 -103.763C1224.34 -31.7121 1254.59 76.3967 1226.82 166.447C1212.92 211.496 1184.51 252.011 1135.13 281.204C1085.76 310.39 1015.46 328.24 917.82 328.042C722.755 327.647 621.523 386.416 575.027 459.402C528.517 532.409 536.661 619.811 560.714 676.912C581.156 719.465 593.038 785.219 562.145 844.148C531.236 903.107 457.607 955.051 307.41 970.158C157.471 985.24 86.4084 1051.23 58.3846 1127.48C30.3372 1203.8 45.3489 1290.53 67.8624 1347.11L66.8465 1347.52C44.2752 1290.79 29.1854 1203.76 57.3585 1127.11C85.5552 1050.38 157.035 984.185 307.3 969.071C457.307 953.983 530.507 902.144 561.177 843.64C591.86 785.112 580.075 719.732 559.722 677.373L559.716 677.361L559.711 677.349C535.559 620.02 527.345 532.213 574.105 458.814C620.88 385.39 722.556 326.553 917.822 326.949C1015.34 327.147 1085.43 309.318 1134.58 280.263C1183.71 251.216 1211.95 210.929 1225.77 166.125C1253.42 76.476 1223.32 -31.3114 1186.96 -103.261C1157.92 -156.394 1133.46 -238.972 1154.6 -313.975C1175.76 -389.056 1242.55 -456.363 1395.61 -479L1395.77 -477.918C1243 -455.324 1176.66 -388.227 1155.65 -313.679ZM1201.05 -94.5847C1171.56 -148.513 1146.83 -231.914 1168.32 -306.912C1179.06 -344.395 1201.35 -379.795 1240.41 -408.393C1279.46 -436.996 1335.31 -458.812 1413.19 -469.07L1413.05 -470.154C1335.05 -459.879 1279.01 -438.016 1239.76 -409.275C1200.51 -380.529 1178.07 -344.921 1167.27 -307.213C1145.66 -231.832 1170.53 -148.126 1200.09 -94.0683C1236.44 -22.0076 1266.66 85.7347 1239.36 174.889C1225.72 219.444 1197.71 259.37 1148.88 287.908C1100.04 316.454 1030.33 333.626 933.279 332.586C738.944 330.502 637.703 388.104 591.393 460.523C545.1 532.917 553.813 619.945 579.02 676.488L579.025 676.498L579.03 676.509C599.863 718.422 612.354 783.416 582.224 842.235C552.106 901.03 479.304 953.835 329.165 971.185C178.77 988.564 106.973 1055.57 78.4278 1132.37C49.9048 1209.11 64.6168 1295.5 86.949 1351.63L87.9648 1351.22C65.6924 1295.25 51.056 1209.15 79.4526 1132.75C107.827 1056.41 179.217 989.613 329.29 972.271C479.619 954.9 552.845 901.984 583.197 842.733C613.534 783.511 600.941 718.14 580.014 676.032C554.916 619.724 546.274 533.109 592.314 461.112C638.34 389.137 739.13 331.597 933.267 333.679C1030.45 334.721 1100.37 317.53 1149.43 288.852C1198.51 260.168 1226.69 220.011 1240.41 175.209C1267.83 85.6536 1237.47 -22.4092 1201.06 -94.5687L1201.05 -94.5768L1201.05 -94.5847ZM1180.99 -300.145C1159.04 -224.774 1184.18 -140.246 1214.19 -85.3907L1214.19 -85.3826L1214.19 -85.3743C1250.6 -13.1062 1281.08 94.9103 1254.01 183.971C1240.46 228.526 1212.52 268.324 1163.74 296.5C1114.98 324.669 1045.44 341.201 948.723 339.315C755.514 335.548 655.166 391.858 609.61 462.823C564.041 533.81 573.179 619.639 599.323 675.153C620.735 716.816 634.039 781.803 604.257 841.319C574.463 900.861 501.638 954.748 351.179 974.384C200.972 993.987 129.253 1061.59 100.529 1138.02C71.7833 1214.51 86.0444 1299.97 108.076 1355.33L107.06 1355.74C84.9668 1300.22 70.6327 1214.46 99.5056 1137.63C128.4 1060.75 200.514 992.944 351.038 973.3C501.311 953.689 573.713 899.917 603.28 840.83C632.857 781.72 619.661 717.111 598.346 675.644L598.341 675.636L598.337 675.627C572.076 619.87 562.863 533.621 608.69 462.233C654.535 390.818 755.341 334.451 948.744 338.222C1045.34 340.106 1114.66 323.59 1163.2 295.554C1211.72 267.525 1239.49 227.96 1252.96 183.653C1279.91 94.9937 1249.58 -12.7034 1213.22 -84.8752C1183.15 -139.857 1157.88 -224.692 1179.94 -300.451C1190.98 -338.349 1213.87 -373.958 1253.89 -402.396C1293.9 -430.828 1351.01 -452.076 1430.49 -461.308L1430.62 -460.222C1351.26 -451.004 1294.34 -429.801 1254.52 -401.505C1214.71 -373.213 1191.97 -337.814 1180.99 -300.145ZM1227.33 -76.1967C1196.8 -131.979 1171.26 -217.633 1193.67 -293.378C1204.88 -331.233 1228.07 -366.632 1268.64 -394.616C1309.22 -422.606 1367.22 -443.196 1448.06 -451.374L1447.95 -452.462C1366.98 -444.272 1308.79 -423.641 1268.02 -395.516C1227.23 -367.386 1203.9 -331.776 1192.63 -293.688C1170.09 -217.551 1195.77 -131.585 1226.36 -75.6797C1262.72 -3.39673 1293.17 104.254 1266.57 192.417C1253.27 236.475 1225.73 275.679 1177.52 303.199C1129.29 330.726 1060.34 346.585 964.215 343.859C771.744 338.4 671.372 393.532 625.994 463.942C580.632 534.326 590.345 619.795 617.661 674.766L617.664 674.773L617.668 674.78C639.464 715.801 653.367 780.024 624.341 839.424C595.326 898.803 523.323 953.542 372.917 975.415C222.264 997.324 149.833 1065.93 120.59 1142.9C91.3667 1219.81 105.323 1304.94 127.177 1359.85L128.193 1359.44C106.403 1304.69 92.5166 1219.86 121.612 1143.29C150.686 1066.77 222.732 998.361 373.075 976.497C523.664 954.597 596.086 899.739 625.324 839.904C654.549 780.095 640.536 715.493 618.638 674.275C591.448 619.554 581.812 534.511 626.913 464.534C671.998 394.579 771.904 339.498 964.184 344.952C1060.43 347.681 1129.6 331.808 1178.06 304.148C1226.53 276.48 1254.24 237.041 1267.61 192.733C1294.34 104.167 1263.74 -3.80319 1227.34 -76.18L1227.33 -76.1884L1227.33 -76.1967ZM1206.36 -286.611C1183.48 -210.493 1209.43 -123.712 1240.47 -67.0027L1240.48 -66.9942L1240.48 -66.9856C1276.88 5.49979 1307.6 113.424 1281.22 201.495C1268.03 245.556 1240.55 284.637 1192.38 311.796C1144.22 338.947 1075.43 354.162 979.649 350.588C788.298 343.449 688.833 397.301 644.219 466.245C599.588 535.213 609.721 619.469 637.957 673.397C660.34 714.17 675.064 778.387 646.394 838.49C617.713 898.616 545.694 954.445 394.973 978.609C244.496 1002.73 172.123 1071.94 142.698 1148.56C113.254 1225.22 126.765 1309.42 148.314 1363.55L147.298 1363.96C125.683 1309.65 112.105 1225.16 141.677 1148.16C171.269 1071.12 244.019 1001.7 394.8 977.53C545.339 953.395 616.944 897.69 645.407 838.019C673.88 778.329 659.271 714.49 636.994 673.915L636.989 673.906C608.618 619.721 598.404 535.03 643.301 465.651C688.214 396.246 788.151 342.349 979.69 349.495C1075.35 353.065 1143.92 337.863 1191.84 310.844C1239.75 283.833 1267.06 244.991 1280.18 201.181C1306.43 113.512 1275.86 5.90714 1239.51 -66.4871C1208.4 -123.317 1182.31 -210.411 1205.31 -286.926C1216.82 -325.204 1240.61 -360.814 1282.15 -388.637C1323.69 -416.453 1382.96 -436.468 1465.4 -443.616L1465.5 -442.526C1383.17 -435.389 1324.1 -415.412 1282.76 -387.728C1241.43 -360.05 1217.79 -324.652 1206.36 -286.611ZM1253.62 -57.8087C1222.06 -115.445 1195.71 -203.352 1219.05 -279.844C1230.72 -318.072 1254.8 -353.469 1296.89 -380.84C1338.99 -408.218 1399.14 -427.582 1482.94 -433.679L1482.86 -434.769C1398.94 -428.663 1338.6 -409.265 1296.29 -381.757C1253.98 -354.243 1229.74 -318.631 1218 -280.164C1194.54 -203.27 1221.03 -115.046 1252.66 -57.2916C1289.02 15.2138 1319.7 122.772 1293.79 209.945C1280.85 253.506 1253.77 291.987 1206.17 318.489C1158.56 344.999 1090.37 359.544 995.171 355.132C804.564 346.299 705.061 398.96 660.614 467.36C616.183 535.735 626.898 619.647 656.324 673.045L656.327 673.051C679.085 713.18 694.399 776.633 666.479 836.614C638.568 896.576 567.362 953.249 416.69 979.645C265.779 1006.08 192.712 1076.3 162.771 1153.43C132.849 1230.51 146.049 1314.37 167.425 1368.07L168.441 1367.66C147.133 1314.14 133.997 1230.57 163.791 1153.82C193.566 1077.12 266.266 1007.11 416.878 980.722C567.729 954.294 639.347 897.494 667.47 837.075C695.586 776.675 680.148 712.839 657.278 672.512C627.999 619.375 617.372 535.911 661.531 467.955C705.675 400.022 804.697 347.399 995.121 356.224C1090.44 360.642 1158.85 346.086 1206.7 319.444C1254.57 292.794 1281.82 254.071 1294.84 210.256C1320.87 122.681 1290.04 14.8028 1253.63 -57.7912L1253.63 -57.8L1253.62 -57.8087ZM1231.75 -273.078C1207.94 -196.211 1234.7 -107.178 1266.78 -48.6147L1266.79 -48.6059L1266.79 -48.5969C1303.2 24.1057 1334.14 131.937 1308.47 219.018C1295.62 262.586 1268.6 300.95 1221.04 327.092C1173.49 353.226 1105.46 367.122 1010.6 361.861C821.108 351.349 722.527 402.744 678.854 469.666C635.165 536.612 646.289 619.292 676.615 671.636C699.97 711.519 716.117 774.968 688.558 835.661C660.991 896.371 589.776 954.142 438.794 982.834C288.047 1011.48 215.02 1082.3 184.894 1159.09C154.751 1235.93 167.512 1318.86 188.579 1371.77L187.563 1372.18C166.426 1319.09 153.604 1235.86 183.876 1158.69C214.166 1081.48 287.551 1010.46 438.59 981.76C589.395 953.102 660.202 895.463 687.562 835.209C714.93 774.938 698.909 711.87 675.67 672.186L675.669 672.184C645.188 619.573 633.973 536.439 677.938 469.069C721.92 401.674 820.989 350.248 1010.66 360.769C1105.4 366.024 1173.21 352.135 1220.51 326.134C1267.8 300.141 1294.65 262.022 1307.42 218.709C1332.98 132.031 1302.18 24.5176 1265.82 -48.099C1233.68 -106.777 1206.78 -196.13 1230.71 -273.401C1242.68 -312.059 1267.37 -347.671 1310.45 -374.877C1353.51 -402.076 1414.93 -420.859 1500.34 -425.923L1500.4 -424.831C1415.11 -419.775 1353.89 -401.024 1311.03 -373.952C1268.18 -346.888 1243.65 -311.491 1231.75 -273.078ZM1279.95 -39.4207C1247.35 -98.911 1220.19 -189.071 1244.45 -266.311C1256.58 -304.91 1281.56 -340.307 1325.17 -367.065C1368.8 -393.83 1431.09 -411.968 1517.86 -415.984L1517.81 -417.076C1430.92 -413.054 1368.43 -394.888 1324.6 -367.997C1280.76 -341.099 1255.62 -305.486 1243.41 -266.639C1219.01 -188.989 1246.32 -98.5057 1278.98 -38.9036C1315.34 33.824 1346.26 141.291 1321.05 227.473C1308.45 270.537 1281.84 308.296 1234.86 333.779C1187.86 359.272 1120.42 372.504 1026.16 366.406C837.415 354.197 738.78 404.388 695.264 470.778C651.764 537.144 663.48 619.498 695.016 671.322C718.735 710.56 735.462 773.242 708.647 833.803C681.839 894.349 611.43 952.955 460.492 983.875C309.324 1014.84 235.621 1086.67 204.983 1163.96C174.361 1241.21 186.805 1323.81 207.703 1376.28L208.719 1375.88C187.893 1323.58 175.507 1241.28 205.999 1164.36C236.475 1087.48 309.829 1015.86 460.712 984.946C611.824 953.99 682.636 895.248 709.646 834.246C736.65 773.26 719.792 710.194 695.951 670.756L695.95 670.755C664.58 619.203 652.961 537.312 696.179 471.377C739.381 405.465 837.52 355.3 1026.09 367.497C1120.47 373.602 1188.13 360.365 1235.38 334.74C1282.64 309.107 1309.43 271.101 1322.1 227.78C1347.42 141.194 1316.36 33.4087 1279.96 -39.4025L1279.95 -39.4117L1279.95 -39.4207ZM1257.16 -259.544C1232.43 -181.93 1260 -90.6439 1293.12 -30.2267L1293.12 -30.2175L1293.13 -30.2081C1329.53 42.7117 1360.71 150.451 1335.73 236.541C1323.23 279.616 1296.68 317.263 1249.72 342.388C1202.78 367.504 1135.5 380.083 1041.58 373.133C853.938 359.25 756.242 408.187 713.51 473.088C670.763 538.011 682.877 619.114 715.292 669.874L715.295 669.879C739.62 708.871 757.189 771.552 730.742 832.832C704.288 894.126 633.878 953.839 482.635 987.059C331.618 1020.23 257.937 1092.66 227.111 1169.63C196.269 1246.64 208.28 1328.31 228.864 1379.99L227.849 1380.39C207.19 1328.52 195.124 1246.56 226.096 1169.22C257.082 1091.85 331.104 1019.22 482.401 985.991C633.472 952.809 703.481 893.236 729.738 832.398C756 771.548 738.569 709.252 714.369 670.46C681.778 619.423 669.561 537.848 712.597 472.486C755.647 407.102 853.847 358.147 1041.66 372.043C1135.46 378.983 1202.51 366.408 1249.21 341.424C1295.88 316.45 1322.26 279.053 1334.68 236.237C1359.54 150.549 1328.51 43.1281 1292.15 -29.7109C1258.98 -90.237 1231.26 -181.849 1256.12 -259.876C1268.56 -298.914 1294.16 -334.527 1338.76 -361.116C1383.36 -387.699 1446.92 -405.25 1535.29 -408.229L1535.33 -407.137C1447.07 -404.161 1383.71 -386.636 1339.32 -360.177C1294.95 -333.726 1269.52 -298.33 1257.16 -259.544ZM1306.3 -21.0327C1272.66 -82.3768 1244.69 -174.79 1269.88 -252.778C1282.47 -291.749 1308.35 -327.145 1353.48 -353.29C1398.62 -379.443 1463.07 -396.354 1552.8 -398.29L1552.78 -399.383C1462.93 -397.445 1398.29 -380.511 1352.93 -354.236C1307.56 -327.954 1281.52 -292.341 1268.84 -253.114C1243.51 -174.708 1271.64 -81.9662 1305.33 -20.516C1341.69 52.4341 1372.84 159.809 1348.33 245.001C1336.08 287.568 1309.93 324.604 1263.56 349.069C1217.18 373.544 1150.5 385.463 1057.17 377.68C870.289 362.096 772.523 409.815 729.937 474.195C687.367 538.553 700.085 619.349 733.731 669.598C758.411 707.945 776.546 769.854 750.837 830.993C725.133 892.122 655.522 952.662 504.318 988.106C352.892 1023.6 278.552 1097.03 247.217 1174.49C215.895 1251.91 227.583 1333.24 248.003 1384.5L249.019 1384.1C228.675 1333.03 217.04 1251.99 248.23 1174.9C279.407 1097.84 353.415 1024.6 504.567 989.171C655.94 953.687 725.949 893.003 751.845 831.417C777.736 769.844 759.458 707.548 734.647 669.001L734.641 668.993C701.182 619.024 688.574 538.71 730.849 474.799C773.11 410.908 870.364 363.2 1057.08 378.769C1150.53 386.563 1217.44 374.643 1264.07 350.036C1310.73 325.42 1337.05 288.131 1349.38 245.303C1374 159.708 1342.71 52.0147 1306.3 -21.0138L1306.3 -21.0233L1306.3 -21.0327ZM1282.61 -246.011C1256.95 -167.649 1285.32 -74.1097 1319.48 -11.8387L1319.48 -11.8291L1319.49 -11.8194C1337.7 24.7663 1354.65 69.9595 1364.01 116.636C1373.38 163.309 1375.17 211.502 1363.03 254.065C1350.88 296.646 1324.79 333.577 1278.43 357.684C1232.1 381.782 1165.57 393.043 1072.58 384.405C886.797 367.15 789.985 413.63 748.195 476.509C706.391 539.409 719.493 618.934 753.997 668.112L754.005 668.124C779.301 706.225 798.29 768.136 772.955 830.002C747.615 891.88 678.009 953.535 526.505 991.283C375.218 1028.98 300.884 1103.01 269.357 1180.17C237.817 1257.35 249.077 1337.75 269.18 1388.21L268.164 1388.61C247.983 1337.96 236.673 1257.26 268.345 1179.75C300.029 1102.22 374.687 1027.98 526.241 990.222C677.579 952.516 746.79 891.009 771.943 829.588C797.099 768.158 778.259 706.635 753.098 668.734C718.399 619.273 705.18 539.256 747.284 475.904C789.404 412.529 886.736 366.046 1072.68 383.317C1165.55 391.943 1231.85 380.68 1277.93 356.714C1323.99 332.758 1349.9 296.084 1361.97 253.765C1374.05 211.427 1372.29 163.424 1362.94 116.852C1353.6 70.2871 1336.69 25.1888 1318.52 -11.3231C1284.31 -73.6974 1255.77 -167.568 1281.57 -246.351C1294.47 -285.768 1320.97 -321.382 1367.11 -347.355C1413.23 -373.322 1478.94 -389.64 1570.28 -390.536L1570.29 -389.442C1479.07 -388.548 1413.55 -372.249 1367.64 -346.403C1321.75 -320.564 1295.43 -285.169 1282.61 -246.011ZM1332.67 -2.64368C1297.99 -65.8416 1269.21 -160.507 1295.34 -239.244C1308.39 -278.588 1335.16 -313.982 1381.81 -339.515C1428.48 -365.055 1495.07 -380.74 1587.77 -380.594L1587.77 -381.688C1494.96 -381.834 1428.17 -366.132 1381.29 -340.474C1334.39 -314.809 1307.44 -279.195 1294.3 -239.588C1268.04 -160.426 1296.98 -65.4257 1331.7 -2.12723C1349.88 34.4399 1366.82 79.5541 1376.23 126.059C1385.65 172.573 1387.53 220.44 1375.63 262.53C1363.73 304.601 1338.05 340.913 1292.3 364.36C1246.52 387.818 1180.61 398.424 1088.2 388.955C903.188 369.997 806.29 415.244 764.635 477.614C722.996 539.963 736.717 619.201 772.471 667.873C798.111 705.329 817.656 766.466 793.053 828.184C768.452 889.897 699.64 952.37 548.169 992.339C396.485 1032.36 321.509 1107.4 289.476 1185.02C257.455 1262.61 268.387 1342.68 288.329 1392.72L289.344 1392.32C269.483 1342.47 258.597 1262.71 290.487 1185.44C322.364 1108.19 397.025 1033.35 548.448 993.396C700.082 953.384 769.286 890.759 794.069 828.589C818.848 766.429 799.148 704.904 773.367 667.247L773.362 667.24L773.357 667.232C737.808 618.845 724.213 540.109 765.545 478.221C806.864 416.353 903.233 371.1 1088.09 390.043C1180.61 399.524 1246.77 388.922 1292.8 365.333C1338.85 341.734 1364.71 305.162 1376.68 262.827C1388.65 220.512 1386.74 172.454 1377.3 125.842C1367.86 79.225 1350.89 34.0162 1332.68 -2.62399L1332.67 -2.63394L1332.67 -2.64368ZM1359.07 15.9683C1323.36 -49.0834 1293.77 -146.002 1320.82 -225.487C1334.33 -265.203 1361.99 -300.597 1410.17 -325.517C1458.36 -350.445 1527.1 -364.904 1622.77 -362.677L1622.79 -363.77C1527.02 -365.999 1458.08 -351.529 1409.67 -326.488C1361.24 -301.44 1333.39 -265.825 1319.78 -225.839C1292.59 -145.922 1322.34 -48.6624 1358.1 16.4844C1376.28 53.1622 1393.27 98.3091 1402.84 144.695C1412.4 191.091 1414.51 238.688 1402.96 280.282C1391.41 321.856 1366.2 357.445 1321.06 379.874C1275.9 402.315 1210.74 411.608 1119.26 400.453C936.116 378.121 840.086 420.895 799.361 481.256C758.651 541.596 773.376 619.275 811.238 666.37C837.84 702.936 858.794 763.3 835.297 825.598C811.8 887.894 743.785 952.302 592.048 996.794C440.107 1041.35 364.494 1117.99 331.763 1195.77C299.043 1273.53 309.218 1352.33 328.682 1401.17L329.698 1400.76C310.319 1352.14 300.182 1273.64 332.771 1196.2C365.349 1118.78 440.663 1042.32 592.355 997.843C744.251 953.304 812.65 888.737 836.32 825.983C859.987 763.237 838.866 702.482 812.115 665.716L812.107 665.705L812.099 665.695C774.461 618.889 759.88 541.73 800.268 481.867C840.645 422.021 936.129 379.224 1119.13 401.539C1210.72 412.707 1276.12 403.424 1321.55 380.853C1366.99 358.272 1392.39 322.415 1404.01 280.574C1415.63 238.753 1413.49 190.966 1403.91 144.475C1394.32 97.9778 1377.29 52.7379 1359.08 15.9886L1359.07 15.9784L1359.07 15.9683ZM1333.56 -218.471C1306.05 -138.612 1336.05 -40.5673 1372.28 25.4113L1372.28 25.4215L1372.29 25.432C1390.5 62.2358 1407.56 107.491 1417.22 153.928C1426.87 200.359 1429.13 248.011 1417.68 289.585C1406.23 331.179 1381.07 366.678 1335.93 388.751C1290.81 410.812 1225.79 419.436 1134.66 407.423C952.584 383.422 857.542 424.992 817.636 483.827C777.721 542.677 792.794 619.047 831.477 665.064L831.486 665.076L831.496 665.088C858.732 701.408 880.563 761.778 857.452 824.818C834.339 887.864 766.342 953.401 614.316 1000.2C462.488 1046.94 386.848 1124.2 353.92 1201.71C320.982 1279.24 330.744 1357.11 349.881 1405.12L348.866 1405.52C329.64 1357.3 319.844 1279.13 352.914 1201.29C385.993 1123.42 461.925 1045.97 613.994 999.159C765.865 952.404 833.481 887.029 856.426 824.441C879.37 761.855 857.712 701.877 830.63 665.756C791.714 619.451 776.485 542.551 816.732 483.213C856.991 423.857 952.587 382.32 1134.8 406.339C1225.82 418.337 1290.59 409.7 1335.45 387.768C1380.28 365.848 1405.25 330.62 1416.63 289.295C1428.01 247.949 1425.78 200.487 1416.15 154.151C1406.51 107.824 1389.48 62.6614 1371.31 25.9285C1335.04 -40.1425 1304.87 -138.532 1332.53 -218.827C1346.37 -259.003 1374.68 -294.618 1423.87 -319.358C1473.04 -344.09 1543.05 -357.945 1640.31 -354.673L1640.27 -353.581C1543.12 -356.848 1473.31 -343.003 1424.36 -318.381C1375.42 -293.768 1347.31 -258.374 1333.56 -218.471ZM1385.49 34.9379C1348.74 -31.9675 1318.35 -131.139 1346.32 -211.372C1360.29 -251.461 1388.85 -286.855 1438.55 -311.162C1488.26 -335.478 1559.15 -348.71 1657.79 -344.401L1657.83 -345.494C1559.09 -349.807 1488 -336.568 1438.07 -312.144C1388.12 -287.713 1359.36 -252.098 1345.29 -211.732C1317.16 -131.059 1347.73 -31.5414 1384.53 35.4537C1402.7 72.2421 1419.76 117.422 1429.46 163.69C1439.17 209.967 1441.52 257.294 1430.31 298.392C1419.11 339.469 1394.36 374.334 1349.84 395.746C1305.3 417.169 1240.9 425.15 1150.35 412.309C969.065 386.603 873.902 426.903 834.108 485.255C794.326 543.589 810.058 619.71 850.029 665.226C877.59 700.902 899.953 760.494 877.561 823.369C855.168 886.249 787.952 952.591 635.948 1001.61C483.75 1050.69 407.499 1128.94 374.071 1206.88C340.652 1284.81 350.069 1362.35 369.056 1409.97L370.071 1409.56C351.175 1362.17 341.788 1284.93 375.076 1207.31C408.354 1129.72 484.321 1051.65 636.283 1002.65C788.44 953.582 856.035 887.074 878.591 823.736C901.146 760.402 878.604 700.418 850.883 664.543L850.872 664.53L850.861 664.517C811.134 619.289 795.568 543.708 835.011 485.871C874.446 428.046 969.045 387.704 1150.19 413.392C1240.86 426.248 1305.5 418.284 1350.32 396.731C1395.15 375.167 1420.09 340.027 1431.36 298.679C1442.63 257.353 1440.26 209.836 1430.53 163.465C1420.8 117.088 1403.71 71.8174 1385.5 34.959L1385.5 34.9484L1385.49 34.9379ZM1354.26 -75.0349C1363.07 -31.3907 1380.09 10.6451 1398.71 44.5431L1398.72 44.5537L1398.72 44.5645C1416.93 81.4774 1434.05 126.764 1443.86 173.081C1453.66 219.391 1456.15 266.773 1445.05 307.852C1433.95 348.953 1409.25 383.735 1364.71 404.791C1320.2 425.834 1255.93 433.139 1165.73 419.439C985.515 392.064 891.358 431.179 852.395 487.993C813.425 544.817 829.481 619.609 870.253 664.048L870.266 664.062L870.278 664.077C898.485 699.506 921.737 759.105 899.739 822.732C877.739 886.362 810.546 953.841 658.259 1005.17C506.161 1056.44 429.869 1135.3 396.24 1212.99C362.603 1290.7 371.615 1367.3 390.27 1414.08L389.255 1414.49C370.507 1367.48 361.468 1290.57 395.237 1212.56C429.013 1134.53 505.583 1055.48 657.91 1004.13C810.047 952.856 876.864 885.546 898.705 822.375C920.544 759.21 897.477 700.004 869.435 664.773C828.412 620.048 812.175 544.706 851.493 487.375C890.823 430.027 985.552 390.964 1165.9 418.358C1255.98 432.042 1320.01 424.717 1364.24 403.802C1408.46 382.899 1432.97 348.395 1444 307.567C1455.03 266.717 1452.57 219.526 1442.79 173.307C1433.01 127.099 1415.92 81.9033 1397.75 45.0596C1379.08 11.0835 1362.02 -31.0525 1353.19 -74.8186C1344.35 -118.586 1343.75 -164.02 1358.05 -204.558C1372.36 -245.114 1401.57 -280.729 1452.28 -304.852C1502.98 -328.967 1575.15 -341.59 1675.37 -336.235L1675.31 -335.143C1575.19 -340.493 1503.23 -327.874 1452.75 -303.865C1402.29 -279.863 1373.29 -244.469 1359.08 -204.194C1344.87 -163.902 1345.45 -118.682 1354.26 -75.0349ZM1411.94 54.2221C1393.06 19.8611 1375.81 -22.6881 1366.89 -66.7769C1357.97 -110.869 1357.4 -156.464 1371.85 -196.943C1386.29 -237.404 1415.74 -272.798 1466.96 -296.493C1518.2 -320.197 1591.24 -332.202 1692.84 -325.812L1692.9 -326.903C1591.2 -333.299 1517.96 -321.292 1466.5 -297.486C1415.02 -273.671 1385.36 -238.056 1370.82 -197.31C1356.29 -156.583 1356.88 -110.772 1365.82 -66.5602C1374.76 -22.3494 1392.05 20.2999 1410.98 54.7385C1429.15 91.6375 1446.27 136.849 1456.12 182.998C1465.97 229.158 1468.55 276.214 1457.69 316.816C1446.84 357.396 1422.56 391.538 1378.65 411.932C1334.72 432.338 1271.08 439.007 1181.46 424.48C1002.05 395.4 907.75 433.226 868.885 489.568C830.03 545.897 846.772 620.46 888.848 664.394C917.371 699.18 941.142 758 919.856 821.455C898.567 884.918 832.149 953.194 679.878 1006.74C527.423 1060.34 450.534 1140.2 416.409 1218.31C382.291 1296.4 390.951 1372.68 409.46 1419.08L410.475 1418.68C392.061 1372.51 383.424 1296.54 417.411 1218.75C451.39 1140.97 528.008 1061.3 680.241 1007.77C832.659 954.174 899.45 885.724 920.893 821.803C942.335 757.882 918.372 698.668 889.68 663.685L889.667 663.668L889.652 663.653C847.835 620.002 831.288 545.999 869.785 490.189C908.277 434.387 1001.99 396.499 1181.28 425.56C1271.02 440.104 1334.91 433.458 1379.12 412.924C1423.35 392.377 1447.82 357.953 1458.75 317.098C1469.67 276.266 1467.06 229.021 1457.19 182.77C1447.31 136.514 1430.16 91.2114 1411.95 54.2438L1411.95 54.2328L1411.94 54.2221Z" fill="#2B5989"/>
</svg>
