<svg width="480" height="757" viewBox="0 0 480 757" fill="none" xmlns="http://www.w3.org/2000/svg">
<path d="M-695.921 1474.99C-742.446 1358.01 -760.643 1119.89 -461.231 1103.27C-161.818 1086.66 -162.766 907.333 -200.666 819.75C-242.575 700.582 -227.415 459.915 168.498 450.586C564.411 441.257 517.861 152.242 445.097 8.90128C390.191 -91.6804 352.387 -307.275 640.43 -365" stroke="#7FC346" stroke-width="1.09328"/>
<path d="M-272.823 1563.54C-309.266 1472.19 -305.913 1261.58 -0.961191 1149.92C303.991 1038.26 263.855 872.591 205.669 803.715C119.664 717.71 137.083 509.696 493.93 571.211C850.776 632.726 794.46 352.191 721.696 204.234C645.045 64.7799 594.876 -206.693 1007.41 -176.956" stroke="#27548C" stroke-width="1.09328"/>
<path d="M-675.837 1479.1C-721.882 1363.34 -739.053 1126.53 -439.377 1105.39C-139.7 1084.24 -142.514 905.571 -181.38 818.878C-225.389 701.29 -210.121 462.178 183.931 456.222C577.984 450.267 530.969 161.656 458.205 18.0953C402.263 -84.3374 363.871 -302.593 657.841 -356.153" stroke="#7BBE49" stroke-width="1.09328"/>
<path d="M-655.744 1483.21C-701.309 1368.67 -717.454 1133.17 -417.514 1107.5C-117.574 1081.83 -122.253 903.81 -162.086 818.007C-208.194 701.998 -192.819 464.441 199.373 461.859C591.565 459.277 544.086 171.07 471.322 27.2894C414.344 -76.9943 375.363 -297.911 675.262 -347.306" stroke="#77B84D" stroke-width="1.09328"/>
<path d="M-635.646 1487.32C-680.73 1374 -695.849 1139.81 -395.645 1109.61C-95.441 1079.42 -101.987 902.048 -142.785 817.136C-190.993 702.707 -175.511 466.704 214.821 467.496C605.153 468.287 557.208 180.484 484.445 36.4835C426.431 -69.6513 386.862 -293.228 692.688 -338.459" stroke="#72B350" stroke-width="1.09328"/>
<path d="M-615.543 1491.43C-660.148 1379.33 -674.24 1146.45 -373.772 1111.73C-73.3048 1077.01 -81.7166 900.286 -123.481 816.265C-173.789 703.415 -158.199 468.967 230.273 473.132C618.744 477.297 570.335 189.898 497.571 45.6775C438.522 -62.3084 398.363 -288.546 710.118 -329.612" stroke="#6EAE53" stroke-width="1.09328"/>
<path d="M-595.432 1495.54C-639.557 1384.66 -652.623 1153.09 -351.891 1113.84C-51.1599 1074.6 -61.4378 898.524 -104.168 815.394C-156.576 704.123 -140.878 471.23 245.733 478.769C632.344 486.307 583.469 199.312 510.706 54.8716C450.622 -54.9653 409.874 -283.864 727.557 -320.765" stroke="#6AA957" stroke-width="1.09328"/>
<path d="M-575.315 1499.64C-618.959 1389.99 -630.999 1159.73 -330.004 1115.96C-29.0089 1072.18 -41.1528 896.762 -84.8492 814.523C-139.357 704.831 -123.551 473.493 261.199 484.405C645.95 495.317 596.61 208.725 523.847 64.0656C462.727 -47.6223 421.391 -279.182 745.001 -311.918" stroke="#66A35A" stroke-width="1.09328"/>
<path d="M-555.194 1503.75C-598.358 1395.32 -609.372 1166.37 -308.113 1118.07C-6.85416 1069.77 -20.8642 895 -65.5266 813.652C-122.134 705.539 -106.221 475.756 276.67 490.042C659.56 504.327 609.755 218.139 536.991 73.2597C474.836 -40.2793 432.911 -274.5 762.45 -303.071" stroke="#629E5D" stroke-width="1.09328"/>
<path d="M-535.067 1507.86C-577.751 1400.65 -587.739 1173.01 -286.216 1120.18C15.3068 1067.36 -0.569336 893.239 -46.1978 812.781C-104.905 706.247 -88.8842 478.019 292.146 495.678C673.176 513.338 622.906 227.553 550.142 82.4539C486.952 -32.9362 444.438 -269.818 779.904 -294.224" stroke="#5D9961" stroke-width="1.09328"/>
<path d="M-514.929 1511.97C-557.133 1405.98 -566.094 1179.65 -264.308 1122.3C37.4789 1064.95 19.7366 891.476 -26.8578 811.91C-87.6649 706.955 -71.5365 480.282 307.633 501.315C686.803 522.347 636.068 236.967 563.304 91.6478C499.079 -25.5933 455.976 -265.136 797.37 -285.377" stroke="#599364" stroke-width="1.09328"/>
<path d="M-494.789 1516.08C-536.513 1411.31 -544.448 1186.29 -242.398 1124.41C59.6523 1062.53 40.044 889.715 -7.51652 811.039C-70.4234 707.664 -54.1874 482.545 323.122 506.952C700.432 531.358 649.232 246.381 576.468 100.842C511.207 -18.2502 467.515 -260.454 814.837 -276.53" stroke="#558E67" stroke-width="1.09328"/>
<path d="M-474.643 1520.19C-515.887 1416.64 -522.796 1192.93 -220.482 1126.52C81.832 1060.12 60.3575 887.953 11.831 810.168C-53.1757 708.372 -36.832 484.808 338.617 512.588C714.066 540.368 662.401 255.795 589.637 110.036C523.341 -10.9072 479.06 -255.772 832.311 -267.683" stroke="#51896B" stroke-width="1.09328"/>
<path d="M-454.489 1524.3C-495.252 1421.97 -501.135 1199.57 -198.557 1128.64C104.02 1057.71 80.6798 886.191 31.1873 809.297C-35.9192 709.08 -19.4679 487.071 354.121 518.225C727.71 549.378 675.58 265.209 602.816 119.23C535.484 -3.56418 490.614 -251.089 849.793 -258.836" stroke="#4D846E" stroke-width="1.09328"/>
<path d="M-434.328 1528.41C-474.612 1427.3 -479.469 1206.21 -176.627 1130.75C126.215 1055.3 101.008 884.429 50.5494 808.426C-18.6569 709.788 -2.09807 489.334 369.631 523.861C741.359 558.388 688.764 274.623 616 128.424C547.633 3.7789 502.174 -246.407 867.281 -249.989" stroke="#497E71" stroke-width="1.09328"/>
<path d="M-414.163 1532.52C-453.967 1432.63 -457.797 1212.85 -154.692 1132.87C148.414 1052.89 121.341 882.668 69.9163 807.556C-1.38974 710.497 15.2767 491.599 385.145 529.499C755.013 567.399 701.953 284.038 629.189 137.619C559.786 11.1228 513.739 -241.724 884.773 -241.141" stroke="#447975" stroke-width="1.09328"/>
<path d="M-393.99 1536.69C-433.314 1438.02 -436.118 1219.55 -132.749 1135.05C170.62 1050.54 141.682 880.971 89.291 806.749C15.8852 711.27 32.6591 493.926 400.667 535.2C768.675 576.474 715.15 293.516 642.386 146.878C571.947 18.5302 525.311 -236.978 902.274 -232.23" stroke="#407478" stroke-width="1.09328"/>
<path d="M-373.81 1540.96C-412.654 1443.51 -414.432 1226.35 -110.799 1137.32C192.834 1048.29 162.029 879.368 108.673 806.038C33.1669 712.138 50.0486 496.349 416.196 540.996C782.344 585.643 728.353 303.089 655.59 156.231C584.116 26.0329 536.891 -232.136 919.781 -223.223" stroke="#3C6E7B" stroke-width="1.09328"/>
<path d="M-353.627 1545.32C-391.99 1449.09 -392.742 1233.24 -88.8451 1139.68C215.052 1046.12 182.381 877.855 128.058 805.416C50.4526 713.095 67.4418 498.86 431.729 546.881C796.017 594.902 741.561 312.752 668.797 165.674C596.288 33.6248 548.474 -227.205 937.292 -214.127" stroke="#38697F" stroke-width="1.09328"/>
<path d="M-333.437 1549.76C-371.32 1454.75 -371.045 1240.21 -66.8849 1142.13C237.276 1044.05 202.739 876.426 147.45 804.877C67.7447 714.135 84.8415 501.456 447.269 552.851C809.696 604.245 754.775 322.499 682.011 175.201C608.466 41.3005 560.064 -222.19 954.81 -204.947" stroke="#346482" stroke-width="1.09328"/>
<path d="M-313.238 1554.29C-350.641 1460.49 -349.34 1247.26 -44.9159 1144.65C259.508 1042.04 223.105 875.076 166.85 804.417C85.0455 715.255 102.25 504.13 462.817 558.898C823.383 613.666 767.997 332.324 695.234 184.806C620.654 49.0547 571.662 -217.097 972.337 -195.689" stroke="#2F5F85" stroke-width="1.09328"/>
<path d="M-293.032 1558.88C-329.955 1466.31 -327.629 1254.39 -22.9405 1147.25C281.748 1040.12 243.478 873.799 186.258 804.031C102.353 716.448 119.665 506.878 478.371 565.02C837.078 623.162 781.227 342.223 708.463 194.485C632.847 56.8827 583.267 -211.93 989.869 -186.357" stroke="#2B5989" stroke-width="1.09328"/>
<path d="M-675.837 1479.1C-721.882 1363.34 -739.053 1126.53 -439.377 1105.39C-139.7 1084.24 -142.514 905.571 -181.38 818.878C-225.389 701.29 -210.121 462.178 183.931 456.222C577.984 450.267 530.969 161.656 458.205 18.0953C402.263 -84.3374 363.871 -302.593 657.841 -356.153" stroke="#7BBE49" stroke-width="1.09328"/>
<path d="M-655.744 1483.21C-701.309 1368.67 -717.454 1133.17 -417.514 1107.5C-117.574 1081.83 -122.253 903.81 -162.086 818.007C-208.194 701.998 -192.819 464.441 199.373 461.859C591.565 459.277 544.086 171.07 471.322 27.2894C414.344 -76.9943 375.363 -297.911 675.262 -347.306" stroke="#77B84D" stroke-width="1.09328"/>
<path d="M-635.646 1487.32C-680.73 1374 -695.849 1139.81 -395.645 1109.61C-95.441 1079.42 -101.987 902.048 -142.785 817.136C-190.993 702.707 -175.511 466.704 214.821 467.496C605.153 468.287 557.208 180.484 484.445 36.4835C426.431 -69.6513 386.862 -293.228 692.688 -338.459" stroke="#72B350" stroke-width="1.09328"/>
<path d="M-615.543 1491.43C-660.148 1379.33 -674.24 1146.45 -373.772 1111.73C-73.3048 1077.01 -81.7166 900.286 -123.481 816.265C-173.789 703.415 -158.199 468.967 230.273 473.132C618.744 477.297 570.335 189.898 497.571 45.6775C438.522 -62.3084 398.363 -288.546 710.118 -329.612" stroke="#6EAE53" stroke-width="1.09328"/>
<path d="M-595.432 1495.54C-639.557 1384.66 -652.623 1153.09 -351.891 1113.84C-51.1599 1074.6 -61.4378 898.524 -104.168 815.394C-156.576 704.123 -140.878 471.23 245.733 478.769C632.344 486.307 583.469 199.312 510.706 54.8716C450.622 -54.9653 409.874 -283.864 727.557 -320.765" stroke="#6AA957" stroke-width="1.09328"/>
<path d="M-575.315 1499.64C-618.959 1389.99 -630.999 1159.73 -330.004 1115.96C-29.0089 1072.18 -41.1528 896.762 -84.8492 814.523C-139.357 704.831 -123.551 473.493 261.199 484.405C645.95 495.317 596.61 208.725 523.847 64.0656C462.727 -47.6223 421.391 -279.182 745.001 -311.918" stroke="#66A35A" stroke-width="1.09328"/>
<path d="M-555.194 1503.75C-598.358 1395.32 -609.372 1166.37 -308.113 1118.07C-6.85416 1069.77 -20.8642 895 -65.5266 813.652C-122.134 705.539 -106.221 475.756 276.67 490.042C659.56 504.327 609.755 218.139 536.991 73.2597C474.836 -40.2793 432.911 -274.5 762.45 -303.071" stroke="#629E5D" stroke-width="1.09328"/>
<path d="M-535.067 1507.86C-577.751 1400.65 -587.739 1173.01 -286.216 1120.18C15.3068 1067.36 -0.569336 893.239 -46.1978 812.781C-104.905 706.247 -88.8842 478.019 292.146 495.678C673.176 513.338 622.906 227.553 550.142 82.4539C486.952 -32.9362 444.438 -269.818 779.904 -294.224" stroke="#5D9961" stroke-width="1.09328"/>
<path d="M-514.929 1511.97C-557.133 1405.98 -566.094 1179.65 -264.308 1122.3C37.4789 1064.95 19.7366 891.476 -26.8578 811.91C-87.6649 706.955 -71.5365 480.282 307.633 501.315C686.803 522.347 636.068 236.967 563.304 91.6478C499.079 -25.5933 455.976 -265.136 797.37 -285.377" stroke="#599364" stroke-width="1.09328"/>
<path d="M-494.789 1516.08C-536.513 1411.31 -544.448 1186.29 -242.398 1124.41C59.6523 1062.53 40.044 889.715 -7.51652 811.039C-70.4234 707.664 -54.1874 482.545 323.122 506.952C700.432 531.358 649.232 246.381 576.468 100.842C511.207 -18.2502 467.515 -260.454 814.837 -276.53" stroke="#558E67" stroke-width="1.09328"/>
<path d="M-474.643 1520.19C-515.887 1416.64 -522.796 1192.93 -220.482 1126.52C81.832 1060.12 60.3575 887.953 11.831 810.168C-53.1757 708.372 -36.832 484.808 338.617 512.588C714.066 540.368 662.401 255.795 589.637 110.036C523.341 -10.9072 479.06 -255.772 832.311 -267.683" stroke="#51896B" stroke-width="1.09328"/>
<path d="M-454.489 1524.3C-495.252 1421.97 -501.135 1199.57 -198.557 1128.64C104.02 1057.71 80.6798 886.191 31.1873 809.297C-35.9192 709.08 -19.4679 487.071 354.121 518.225C727.71 549.378 675.58 265.209 602.816 119.23C535.484 -3.56418 490.614 -251.089 849.793 -258.836" stroke="#4D846E" stroke-width="1.09328"/>
<path d="M-434.328 1528.41C-474.612 1427.3 -479.469 1206.21 -176.627 1130.75C126.215 1055.3 101.008 884.429 50.5494 808.426C-18.6569 709.788 -2.09807 489.334 369.631 523.861C741.359 558.388 688.764 274.623 616 128.424C547.633 3.7789 502.174 -246.407 867.281 -249.989" stroke="#497E71" stroke-width="1.09328"/>
<path d="M-414.163 1532.52C-453.967 1432.63 -457.797 1212.85 -154.692 1132.87C148.414 1052.89 121.341 882.668 69.9163 807.556C-1.38974 710.497 15.2767 491.599 385.145 529.499C755.013 567.399 701.953 284.038 629.189 137.619C559.786 11.1228 513.739 -241.724 884.773 -241.141" stroke="#447975" stroke-width="1.09328"/>
<path d="M-393.99 1536.69C-433.314 1438.02 -436.118 1219.55 -132.749 1135.05C170.62 1050.54 141.682 880.971 89.291 806.749C15.8852 711.27 32.6591 493.926 400.667 535.2C768.675 576.474 715.15 293.516 642.386 146.878C571.947 18.5302 525.311 -236.978 902.274 -232.23" stroke="#407478" stroke-width="1.09328"/>
<path d="M-373.81 1540.96C-412.654 1443.51 -414.432 1226.35 -110.799 1137.32C192.834 1048.29 162.029 879.368 108.673 806.038C33.1669 712.138 50.0486 496.349 416.196 540.996C782.344 585.643 728.353 303.089 655.59 156.231C584.116 26.0329 536.891 -232.136 919.781 -223.223" stroke="#3C6E7B" stroke-width="1.09328"/>
<path d="M-353.627 1545.32C-391.99 1449.09 -392.742 1233.24 -88.8451 1139.68C215.052 1046.12 182.381 877.855 128.058 805.416C50.4526 713.095 67.4418 498.86 431.729 546.881C796.017 594.902 741.561 312.752 668.797 165.674C596.288 33.6248 548.474 -227.205 937.292 -214.127" stroke="#38697F" stroke-width="1.09328"/>
<path d="M-333.437 1549.76C-371.32 1454.75 -371.045 1240.21 -66.8849 1142.13C237.276 1044.05 202.739 876.426 147.45 804.877C67.7447 714.135 84.8415 501.456 447.269 552.851C809.696 604.245 754.775 322.499 682.011 175.201C608.466 41.3005 560.064 -222.19 954.81 -204.947" stroke="#346482" stroke-width="1.09328"/>
<path d="M-313.238 1554.29C-350.641 1460.49 -349.34 1247.26 -44.9159 1144.65C259.508 1042.04 223.105 875.076 166.85 804.417C85.0455 715.255 102.25 504.13 462.817 558.898C823.383 613.666 767.997 332.324 695.234 184.806C620.654 49.0547 571.662 -217.097 972.337 -195.689" stroke="#2F5F85" stroke-width="1.09328"/>
<path d="M-293.032 1558.88C-329.955 1466.31 -327.629 1254.39 -22.9405 1147.25C281.748 1040.12 243.478 873.799 186.258 804.031C102.353 716.448 119.665 506.878 478.371 565.02C837.078 623.162 781.227 342.223 708.463 194.485C632.847 56.8827 583.267 -211.93 989.869 -186.357" stroke="#2B5989" stroke-width="1.09328"/>
</svg>
