<svg width="132" height="33" viewBox="0 0 132 33" fill="none" xmlns="http://www.w3.org/2000/svg">
<path d="M39.3271 4.68042H46.6188C50.1431 4.68042 52.6344 7.06283 52.6344 10.5493C52.6344 14.0357 50.1431 16.4763 46.6188 16.4763H42.7907V22.6938H39.3879V4.68042H39.3271ZM45.9504 13.629C47.9556 13.629 49.1101 12.4087 49.1101 10.5493C49.1101 8.68984 47.9556 7.52769 46.0112 7.52769H42.7299V13.6871H45.9504V13.629Z" fill="white"/>
<path d="M56.0372 18.1033C56.0372 18.1033 58.1032 20.0208 60.7161 20.0208C62.1744 20.0208 63.4504 19.3235 63.4504 17.8127C63.4504 14.5587 54.5181 15.1398 54.5181 9.61957C54.5181 6.59798 57.2525 4.38989 60.8376 4.38989C64.5442 4.38989 66.4886 6.30744 66.4886 6.30744L65.0303 8.98039C65.0303 8.98039 63.2074 7.41148 60.8376 7.41148C59.2577 7.41148 57.9817 8.28309 57.9817 9.56146C57.9817 12.7574 66.8532 12.002 66.8532 17.7546C66.8532 20.6019 64.5442 23.0424 60.6553 23.0424C56.4626 23.0424 54.1536 20.6019 54.1536 20.6019L56.0372 18.1033Z" fill="white"/>
<path d="M69.8306 4.68042H73.1726V7.52769H69.8306V4.68042ZM69.8306 9.73577H73.2333V22.6938H69.8306V9.73577Z" fill="white"/>
<path d="M85.933 4.56421C90.2472 4.56421 92.5563 6.65608 92.5563 6.65608L91.5841 7.99255C91.5841 7.99255 89.3966 6.19122 85.9938 6.19122C81.4973 6.19122 78.3983 9.50335 78.3983 13.7452C78.3983 18.1614 81.558 21.4154 85.8115 21.4154C89.4573 21.4154 91.7056 18.8006 91.7056 18.8006V15.779H88.5459V14.2101H93.4677V22.7519H91.7664V21.4154C91.7664 21.0086 91.7664 20.66 91.7664 20.66C91.7664 20.66 89.6396 23.1005 85.69 23.1005C80.5858 23.1005 76.5754 19.1492 76.5754 13.8614C76.5146 8.63174 80.5858 4.56421 85.933 4.56421Z" fill="white"/>
<path d="M104.466 14.7912H105.195V14.4426C105.195 12.002 103.798 11.1304 101.853 11.1304C99.6657 11.1304 98.0859 12.3507 98.0859 12.3507L97.2352 11.0142C97.2352 11.0142 98.9973 9.56152 101.975 9.56152C105.195 9.56152 106.957 11.2466 106.957 14.4426V22.6357H105.256V21.2411C105.256 20.602 105.317 20.1952 105.317 20.1952H105.256C105.256 20.1952 104.162 22.9844 100.82 22.9844C98.572 22.9844 96.2629 21.7641 96.2629 19.2074C96.2629 14.9074 102.157 14.7912 104.466 14.7912ZM101.124 21.5317C103.676 21.5317 105.195 18.975 105.195 16.7669V16.1858H104.405C102.279 16.1858 98.0859 16.2439 98.0859 19.0912C98.1466 20.3114 99.1188 21.5317 101.124 21.5317Z" fill="white"/>
<path d="M111.636 11.537H109.874V10.0844H111.636V6.42358H113.398V10.0844H116.74V11.537H113.398V17.8708C113.398 20.8924 115.404 21.241 116.376 21.241C116.74 21.241 116.983 21.1829 116.983 21.1829V22.7518C116.983 22.7518 116.68 22.8099 116.193 22.8099C114.674 22.8099 111.515 22.345 111.515 18.0451V11.537H111.636Z" fill="white"/>
<path d="M125.673 9.61963C129.379 9.61963 131.263 12.3507 131.263 15.4885C131.263 15.779 131.202 16.3601 131.202 16.3601H120.933C120.994 19.6141 123.364 21.4155 126.098 21.4155C128.529 21.4155 130.169 19.8466 130.169 19.8466L131.02 21.183C131.02 21.183 129.075 22.9844 126.098 22.9844C122.088 22.9844 119.11 20.2533 119.11 16.302C119.11 12.1764 122.088 9.61963 125.673 9.61963ZM129.44 15.0236C129.318 12.3507 127.617 11.1304 125.612 11.1304C123.364 11.1304 121.419 12.4669 120.994 15.0236H129.44Z" fill="white"/>
<path d="M40.7247 26.8774C41.3931 26.8774 41.6969 27.3423 41.6969 27.9234C41.6969 27.9815 41.6969 28.0977 41.6969 28.0977H39.9955C39.9955 28.5626 40.3601 28.8531 40.7854 28.8531C41.2108 28.8531 41.4538 28.6207 41.4538 28.6207L41.6361 28.9112C41.6361 28.9112 41.2716 29.2017 40.7247 29.2017C39.9955 29.2017 39.5094 28.6788 39.5094 28.0396C39.5702 27.3423 40.0563 26.8774 40.7247 26.8774ZM41.2716 27.7491C41.2716 27.3423 41.0285 27.168 40.7247 27.168C40.3601 27.168 40.117 27.3423 40.0563 27.7491H41.2716Z" fill="white"/>
<path d="M44.1274 26.0059C44.9173 26.0059 45.2819 26.4126 45.2819 26.4126L45.0389 26.7613C45.0389 26.7613 44.6743 26.4126 44.1274 26.4126C43.3982 26.4126 42.9121 26.9356 42.9121 27.5748C42.9121 28.2139 43.3982 28.795 44.1274 28.795C44.7351 28.795 45.0996 28.3883 45.0996 28.3883L45.3427 28.6788C45.3427 28.6788 44.9173 29.1437 44.0666 29.1437C43.0944 29.1437 42.426 28.4464 42.426 27.5167C42.4868 26.7032 43.1552 26.0059 44.1274 26.0059Z" fill="white"/>
<path d="M47.3479 26.8774C48.0163 26.8774 48.624 27.3423 48.624 28.0396C48.624 28.7369 48.0771 29.2017 47.3479 29.2017C46.6795 29.2017 46.0719 28.7369 46.0719 28.0396C46.0719 27.3423 46.6188 26.8774 47.3479 26.8774ZM47.3479 28.795C47.7733 28.795 48.1379 28.4464 48.1379 27.9815C48.1379 27.5166 47.7733 27.168 47.3479 27.168C46.9226 27.168 46.558 27.5166 46.558 27.9815C46.558 28.5045 46.9226 28.795 47.3479 28.795Z" fill="white"/>
<path d="M49.4139 26.9356H49.8393V27.2261C49.8393 27.3423 49.8393 27.4004 49.8393 27.4004C49.9608 27.168 50.2646 26.8774 50.6292 26.8774C50.9938 26.8774 51.2369 27.0518 51.2976 27.4004C51.4191 27.1099 51.723 26.8774 52.1483 26.8774C52.6952 26.8774 52.9382 27.168 52.9382 27.7491V29.1436H52.5129V27.8072C52.5129 27.5166 52.4521 27.2261 52.0875 27.2261C51.7837 27.2261 51.5407 27.5166 51.4191 27.8072C51.4191 27.9234 51.3584 27.9815 51.3584 28.0977V29.0855H50.933V27.7491C50.933 27.4585 50.8723 27.168 50.5077 27.168C50.1431 27.168 49.9608 27.4585 49.8393 27.7491C49.8393 27.8653 49.8393 27.9234 49.8393 28.0396V29.0274H49.4139V26.9356Z" fill="white"/>
<path d="M53.9712 26.9356H54.3965V27.2261C54.3965 27.3423 54.3965 27.4004 54.3965 27.4004C54.5181 27.168 54.8219 26.8774 55.1865 26.8774C55.5511 26.8774 55.7941 27.0518 55.8549 27.4004C55.9764 27.1099 56.2802 26.8774 56.7056 26.8774C57.2524 26.8774 57.4955 27.168 57.4955 27.7491V29.1436H57.0701V27.8072C57.0701 27.5166 57.0094 27.2261 56.6448 27.2261C56.341 27.2261 56.0979 27.5166 55.9764 27.8072C55.9764 27.9234 55.9156 27.9815 55.9156 28.0977V29.0855H55.4903V27.7491C55.4903 27.4585 55.4295 27.168 55.0649 27.168C54.7004 27.168 54.5181 27.4585 54.3965 27.7491C54.3965 27.8653 54.3965 27.9234 54.3965 28.0396V29.0274H53.9712V26.9356Z" fill="white"/>
<path d="M59.44 26.8774C60.1084 26.8774 60.4122 27.3423 60.4122 27.9234C60.4122 27.9815 60.4122 28.0977 60.4122 28.0977H58.7108C58.7108 28.5626 59.0754 28.8531 59.5008 28.8531C59.9261 28.8531 60.1692 28.6207 60.1692 28.6207L60.3515 28.9112C60.3515 28.9112 59.9869 29.2017 59.44 29.2017C58.7108 29.2017 58.2247 28.6788 58.2247 28.0396C58.2855 27.3423 58.8324 26.8774 59.44 26.8774ZM59.9869 27.7491C59.9869 27.3423 59.7438 27.168 59.44 27.168C59.0754 27.168 58.8324 27.3423 58.7716 27.7491H59.9869Z" fill="white"/>
<path d="M61.3236 26.9355H61.749V27.3423C61.749 27.4585 61.749 27.5166 61.749 27.5166C61.8705 27.168 62.1135 26.9355 62.4781 26.9355C62.5389 26.9355 62.5997 26.9355 62.5997 26.9355V27.3423C62.5997 27.3423 62.5389 27.3423 62.4781 27.3423C62.1743 27.3423 61.9312 27.5166 61.8097 27.8653C61.749 27.9815 61.749 28.1558 61.749 28.272V29.2017H61.3236V26.9355Z" fill="white"/>
<path d="M64.4833 26.8774C65.091 26.8774 65.334 27.2261 65.334 27.2261L65.1517 27.5166C65.1517 27.5166 64.9087 27.2842 64.4833 27.2842C63.9972 27.2842 63.6934 27.6328 63.6934 28.0977C63.6934 28.5626 64.058 28.9112 64.4833 28.9112C64.9087 28.9112 65.2125 28.6207 65.2125 28.6207L65.3948 28.9112C65.3948 28.9112 65.091 29.2599 64.4833 29.2599C63.7542 29.2599 63.268 28.795 63.268 28.0977C63.2073 27.3423 63.7542 26.8774 64.4833 26.8774Z" fill="white"/>
<path d="M67.2177 26.8774C67.8861 26.8774 68.1899 27.3423 68.1899 27.9234C68.1899 27.9815 68.1899 28.0977 68.1899 28.0977H66.4885C66.4885 28.5626 66.8531 28.8531 67.2785 28.8531C67.7038 28.8531 67.9469 28.6207 67.9469 28.6207L68.1292 28.9112C68.1292 28.9112 67.7646 29.2017 67.2177 29.2017C66.4886 29.2017 66.0024 28.6788 66.0024 28.0396C66.0632 27.3423 66.5493 26.8774 67.2177 26.8774ZM67.7646 27.7491C67.7646 27.3423 67.5215 27.168 67.2177 27.168C66.8531 27.168 66.6101 27.3423 66.5493 27.7491H67.7646Z" fill="white"/>
<path d="M70.7421 28.4464C70.7421 28.4464 71.1066 28.795 71.5928 28.795C71.8966 28.795 72.1396 28.6207 72.1396 28.3302C72.1396 27.691 70.5598 27.8072 70.5598 26.8775C70.5598 26.4126 70.9851 26.0059 71.5928 26.0059C72.2004 26.0059 72.5042 26.2964 72.5042 26.2964L72.3219 26.645C72.3219 26.645 72.0181 26.3545 71.5928 26.3545C71.2282 26.3545 70.9851 26.5869 70.9851 26.8194C70.9851 27.4586 72.565 27.2842 72.565 28.2721C72.565 28.7369 72.2004 29.1437 71.532 29.1437C70.8636 29.1437 70.4382 28.7369 70.4382 28.7369L70.7421 28.4464Z" fill="white"/>
<path d="M74.5094 26.8774C75.1778 26.8774 75.7855 27.3423 75.7855 28.0396C75.7855 28.7369 75.2386 29.2017 74.5094 29.2017C73.841 29.2017 73.2334 28.7369 73.2334 28.0396C73.2942 27.3423 73.841 26.8774 74.5094 26.8774ZM74.5094 28.795C74.9348 28.795 75.2994 28.4464 75.2994 27.9815C75.2994 27.5166 74.9348 27.168 74.5094 27.168C74.0841 27.168 73.7195 27.5166 73.7195 27.9815C73.7195 28.5045 74.0841 28.795 74.5094 28.795Z" fill="white"/>
<path d="M76.6361 26.064H77.0615V28.4464C77.0615 28.7369 77.183 28.7369 77.3045 28.7369C77.3653 28.7369 77.3653 28.7369 77.3653 28.7369V29.0856C77.3653 29.0856 77.3045 29.0856 77.2437 29.0856C77.0007 29.0856 76.6361 29.0274 76.6361 28.4464V26.064Z" fill="white"/>
<path d="M78.1553 26.9355H78.5806V28.272C78.5806 28.5626 78.6414 28.795 79.0059 28.795C79.4921 28.795 79.7351 28.3882 79.7351 27.9815V26.9355H80.1605V29.1436H79.7351V28.8531C79.7351 28.7369 79.7351 28.6788 79.7351 28.6788C79.6136 28.9112 79.3098 29.2017 78.8844 29.2017C78.3375 29.2017 78.0945 28.9112 78.0945 28.3301V26.9355H78.1553Z" fill="white"/>
<path d="M81.3757 27.2842H81.0719V26.9356H81.3757V26.2964H81.8011V26.9356H82.3479V27.2842H81.8011V28.272C81.8011 28.7369 82.1049 28.795 82.2872 28.795C82.3479 28.795 82.4087 28.795 82.4087 28.795V29.1437C82.4087 29.1437 82.3479 29.1437 82.2264 29.1437C81.9226 29.1437 81.315 29.0274 81.315 28.3302V27.2842H81.3757Z" fill="white"/>
<path d="M83.2594 26.064H83.6847V26.4707H83.2594V26.064ZM83.2594 26.9356H83.6847V29.1437H83.2594V26.9356Z" fill="white"/>
<path d="M85.8114 26.8774C86.4798 26.8774 87.0875 27.3423 87.0875 28.0396C87.0875 28.7369 86.5406 29.2017 85.8114 29.2017C85.143 29.2017 84.5354 28.7369 84.5354 28.0396C84.5354 27.3423 85.143 26.8774 85.8114 26.8774ZM85.8114 28.795C86.2368 28.795 86.6014 28.4464 86.6014 27.9815C86.6014 27.5166 86.2368 27.168 85.8114 27.168C85.3861 27.168 85.0215 27.5166 85.0215 27.9815C85.0215 28.5045 85.3861 28.795 85.8114 28.795Z" fill="white"/>
<path d="M87.9382 26.9356H88.3636V27.2261C88.3636 27.3423 88.3636 27.4004 88.3636 27.4004C88.4851 27.2261 88.7282 26.8774 89.2143 26.8774C89.7612 26.8774 90.0042 27.168 90.0042 27.7491V29.1436H89.5789V27.8072C89.5789 27.5166 89.5181 27.2261 89.1535 27.2261C88.7889 27.2261 88.5459 27.4585 88.4243 27.7491C88.4243 27.8653 88.3636 27.9234 88.3636 28.0396V29.0855H87.9382V26.9356Z" fill="white"/>
<path d="M91.0372 28.5626C91.0372 28.5626 91.2802 28.795 91.7055 28.795C91.8878 28.795 92.0701 28.6788 92.0701 28.5045C92.0701 28.0977 90.8549 28.1558 90.8549 27.4585C90.8549 27.0518 91.2194 26.8193 91.7055 26.8193C92.1917 26.8193 92.4347 27.0518 92.4347 27.0518L92.2524 27.3423C92.2524 27.3423 92.0701 27.168 91.7055 27.168C91.5233 27.168 91.341 27.2261 91.341 27.4585C91.341 27.8653 92.5562 27.7491 92.5562 28.5045C92.5562 28.8531 92.2524 29.1436 91.7055 29.1436C91.1587 29.1436 90.8549 28.795 90.8549 28.795L91.0372 28.5626Z" fill="white"/>
<path d="M33.3723 19.4398L24.9868 2.53046C24.0754 0.671018 21.7664 -0.0843804 19.8827 0.787233L2.20038 8.80608C0.255937 9.67769 -0.533994 11.8858 0.377465 13.6871L8.76288 30.5964C9.67434 32.4558 11.9834 33.2112 13.867 32.3396L31.5493 24.3208C33.4938 23.5073 34.2837 21.2992 33.3723 19.4398ZM21.5233 25.7735C21.6448 26.2383 21.5233 26.7032 21.2195 27.0518C20.9157 27.4005 20.4296 27.6329 19.9434 27.6329H12.6518C12.1657 27.6329 11.7403 27.4005 11.4365 27.0518C11.1327 26.7032 11.0111 26.2383 11.1327 25.7735L13.2594 15.8371C11.1934 14.8493 9.97816 12.9898 9.97816 11.0142C9.97816 7.99256 12.8341 5.49394 16.2976 5.49394C19.7611 5.49394 22.617 7.99256 22.617 11.0142C22.617 13.0479 21.341 14.9074 19.275 15.8952L21.5233 25.7735Z" fill="white"/>
<path d="M21.1587 9.32896C21.0979 9.21274 19.6396 6.5979 16.1761 6.53979C16.0545 6.53979 15.933 6.59791 15.8115 6.65601C15.6899 6.77223 15.6899 6.88844 15.6899 7.00466C15.6899 7.29519 15.933 7.46951 16.1761 7.52762C19.032 7.58573 20.2472 9.67761 20.308 9.79382C20.4295 9.96814 20.5511 10.0844 20.7941 10.0844C20.8549 10.0844 20.9764 10.0844 21.0372 10.0262H21.0979C21.2195 9.85192 21.2802 9.56139 21.1587 9.32896Z" fill="white"/>
<path d="M16.1152 8.34106C15.9937 8.34106 15.8722 8.39917 15.7507 8.45728C15.6291 8.57349 15.5684 8.68971 15.5684 8.80593C15.5684 9.09646 15.7507 9.32889 16.0545 9.32889C18.0597 9.44511 18.7888 10.7235 18.7888 10.7816C18.8496 10.9559 19.0319 11.0721 19.275 11.0721C19.3357 11.0721 19.3965 11.0721 19.518 11.014C19.518 11.014 19.5788 11.014 19.5788 10.9559C19.7611 10.8397 19.8826 10.5491 19.7611 10.3167C19.6395 10.2586 18.6673 8.45728 16.1152 8.34106Z" fill="white"/>
<path d="M15.933 10.0264C15.8115 10.0264 15.6899 10.0264 15.5684 10.1426C15.4469 10.2007 15.3861 10.3169 15.3861 10.4912C15.3861 10.7818 15.5684 11.0142 15.8722 11.0142C16.9052 11.1304 17.2698 11.7696 17.2698 11.8277C17.3306 12.002 17.5736 12.1182 17.7559 12.1182C17.8167 12.1182 17.8774 12.1182 17.9382 12.0601C17.9382 12.0601 17.999 12.0601 17.999 12.002C18.1812 11.8858 18.3028 11.5953 18.1812 11.3628C18.1205 11.3628 17.5736 10.2007 15.933 10.0264Z" fill="white"/>
<path d="M21.4625 11.6533C21.4625 11.3628 21.2195 11.0723 20.8549 11.0723C20.5511 11.0723 20.308 11.2466 20.308 11.5371C20.065 12.8736 18.8497 14.0357 17.2698 14.3844C16.966 14.4425 16.7837 14.733 16.8445 15.0236L19.275 25.4829H13.5025L15.7507 14.9655C15.8115 14.6749 15.6292 14.3844 15.3254 14.3263C13.5632 13.9195 12.2872 12.5831 12.2872 11.0723C12.2872 9.7939 13.1379 8.63175 14.5354 8.05067C14.657 7.99257 14.7785 7.87635 14.8393 7.76014C14.9 7.64392 14.9 7.4696 14.8393 7.35339C14.7177 7.06285 14.3531 6.94663 14.0493 7.06284C12.2264 7.81824 11.0719 9.38715 11.0719 11.1304C11.0719 12.9898 12.4087 14.6749 14.4747 15.3141L12.1656 26.0059C12.1656 26.1802 12.1656 26.3546 12.2872 26.4708C12.4087 26.587 12.5302 26.6451 12.7125 26.6451H19.8827C20.065 26.6451 20.2472 26.587 20.308 26.4708C20.4295 26.3546 20.4903 26.1802 20.4295 26.0059L17.9382 15.3722C19.7611 14.8493 21.0372 13.4547 21.341 11.8277V11.7696C21.4625 11.7696 21.4625 11.7696 21.4625 11.6533C21.4625 11.7114 21.4625 11.7114 21.4625 11.6533Z" fill="white"/>
</svg>
