<svg width="55" height="55" viewBox="0 0 55 55" fill="none" xmlns="http://www.w3.org/2000/svg">
<path d="M34.2461 8.59375C37.1614 9.37615 39.8196 10.9116 41.954 13.046C44.0884 15.1804 45.6238 17.8386 46.4063 20.7539" stroke="white" stroke-width="1.5" stroke-linecap="round" stroke-linejoin="round"/>
<path d="M32.4609 15.2324C34.2143 15.6981 35.8134 16.619 37.0962 17.9018C38.3791 19.1846 39.3 20.7837 39.7656 22.5371" stroke="white" stroke-width="1.5" stroke-linecap="round" stroke-linejoin="round"/>
<path d="M19.873 26.8125C21.6417 30.4649 24.5951 33.4107 28.252 35.1699C28.5217 35.2977 28.8201 35.3529 29.1177 35.3303C29.4153 35.3077 29.7019 35.208 29.9492 35.041L35.3203 31.4531C35.5576 31.2922 35.8318 31.194 36.1174 31.1677C36.4029 31.1414 36.6904 31.1878 36.9531 31.3027L47.0078 35.6211C47.3515 35.7641 47.6386 36.0162 47.8249 36.3384C48.0112 36.6606 48.0865 37.0351 48.0391 37.4043C47.7204 39.8916 46.5063 42.1776 44.624 43.8345C42.7417 45.4914 40.3202 46.4057 37.8125 46.4063C30.0632 46.4063 22.6313 43.3279 17.1517 37.8483C11.6721 32.3687 8.59375 24.9368 8.59375 17.1875C8.59432 14.6798 9.50859 12.2583 11.1655 10.376C12.8224 8.49371 15.1084 7.27963 17.5957 6.96095C17.9649 6.91352 18.3394 6.98878 18.6616 7.17512C18.9839 7.36146 19.2359 7.64856 19.3789 7.9922L23.6973 18.0684C23.8096 18.3269 23.8565 18.6091 23.8341 18.8901C23.8116 19.1711 23.7203 19.4423 23.5684 19.6797L19.9805 25.1367C19.8207 25.3835 19.727 25.6672 19.7082 25.9606C19.6894 26.254 19.7461 26.5473 19.873 26.8125V26.8125Z" stroke="white" stroke-width="1.5" stroke-linecap="round" stroke-linejoin="round"/>
</svg>
