<svg width="68" height="57" viewBox="0 0 68 57" fill="none" xmlns="http://www.w3.org/2000/svg">
<path d="M40 50.3238H4.11984L3.95178 17.8607H41.0946C44.428 14.1607 53.0738 12.4049 58.5713 13.6762C63.1427 14.7333 63.7141 15.2619 67.1427 17.8607V7.15713C67.1427 5.52163 66.4403 3.95311 65.1901 2.79664C63.9399 1.64016 62.2442 0.990463 60.476 0.990463H7.14272C5.37461 0.990463 3.67891 1.64016 2.42867 2.79664C1.17843 3.95311 0.476049 5.52163 0.476049 7.15713L0.5 44.3333C0.5 45.9688 0.024053 51.9095 1.52392 52.8962C2.52405 54.3762 4.99983 54.2 6.99985 54.2H42.5C41.1666 52.35 41 52.4821 40 50.3238ZM3.95178 4.16189H63.6664V12.619L3.95178 12.8208V4.16189ZM55.476 25.6571C49.1427 25.6571 43.8094 30.5905 43.8094 36.4488C43.8094 44.4655 55.476 56.4905 55.476 56.4905C55.476 56.4905 67.1427 44.4655 67.1427 36.4488C67.1427 30.5905 61.8094 25.6571 55.476 25.6571ZM55.476 40.4571C53.1427 40.4571 51.476 38.6071 51.476 36.7571C51.476 34.5988 53.476 33.0571 55.476 33.0571C57.476 33.0571 59.476 34.9071 59.476 36.7571C59.8094 38.6071 57.8094 40.4571 55.476 40.4571Z" fill="white"/>
</svg>
