<svg width="132" height="34" viewBox="0 0 132 34" fill="none" xmlns="http://www.w3.org/2000/svg">
<path d="M39.3271 4.57373H46.6188C50.1431 4.57373 52.6344 7.06505 52.6344 10.7109C52.6344 14.3567 50.1431 16.9088 46.6188 16.9088H42.7907V23.4105H39.3879V4.57373H39.3271ZM45.9504 13.9314C47.9556 13.9314 49.1101 12.6553 49.1101 10.7109C49.1101 8.76644 47.9556 7.55116 46.0112 7.55116H42.7299V13.9921H45.9504V13.9314Z" fill="black"/>
<path d="M56.0372 18.6102C56.0372 18.6102 58.1032 20.6154 60.7161 20.6154C62.1744 20.6154 63.4504 19.8862 63.4504 18.3064C63.4504 14.9036 54.5181 15.5112 54.5181 9.73865C54.5181 6.57893 57.2525 4.2699 60.8376 4.2699C64.5442 4.2699 66.4886 6.27511 66.4886 6.27511L65.0303 9.07024C65.0303 9.07024 63.2074 7.42962 60.8376 7.42962C59.2577 7.42962 57.9817 8.34107 57.9817 9.67788C57.9817 13.0199 66.8532 12.23 66.8532 18.2456C66.8532 21.223 64.5442 23.7751 60.6553 23.7751C56.4626 23.7751 54.1536 21.223 54.1536 21.223L56.0372 18.6102Z" fill="black"/>
<path d="M69.8306 4.57373H73.1726V7.55116H69.8306V4.57373ZM69.8306 9.86019H73.2333V23.4105H69.8306V9.86019Z" fill="black"/>
<path d="M85.933 4.45215C90.2472 4.45215 92.5563 6.63965 92.5563 6.63965L91.5841 8.03721C91.5841 8.03721 89.3966 6.15353 85.9938 6.15353C81.4973 6.15353 78.3983 9.61708 78.3983 14.0528C78.3983 18.6709 81.558 22.0737 85.8115 22.0737C89.4573 22.0737 91.7056 19.3393 91.7056 19.3393V16.1796H88.5459V14.5389H93.4677V23.4712H91.7664V22.0737C91.7664 21.6483 91.7664 21.2837 91.7664 21.2837C91.7664 21.2837 89.6396 23.8358 85.69 23.8358C80.5858 23.8358 76.5754 19.7039 76.5754 14.1744C76.5146 8.70562 80.5858 4.45215 85.933 4.45215Z" fill="black"/>
<path d="M104.466 15.1466H105.195V14.782C105.195 12.2299 103.798 11.3185 101.853 11.3185C99.6657 11.3185 98.0859 12.5945 98.0859 12.5945L97.2352 11.197C97.2352 11.197 98.9973 9.67786 101.975 9.67786C105.195 9.67786 106.957 11.44 106.957 14.782V23.3497H105.256V21.8914C105.256 21.223 105.317 20.7977 105.317 20.7977H105.256C105.256 20.7977 104.162 23.7143 100.82 23.7143C98.572 23.7143 96.2629 22.4383 96.2629 19.7647C96.2629 15.2681 102.157 15.1466 104.466 15.1466ZM101.124 22.1952C103.676 22.1952 105.195 19.5216 105.195 17.2126V16.6049H104.405C102.279 16.6049 98.0859 16.6657 98.0859 19.6431C98.1466 20.9192 99.1188 22.1952 101.124 22.1952Z" fill="black"/>
<path d="M111.636 11.7438H109.874V10.2247H111.636V6.39661H113.398V10.2247H116.74V11.7438H113.398V18.3671C113.398 21.5268 115.404 21.8914 116.376 21.8914C116.74 21.8914 116.983 21.8306 116.983 21.8306V23.4713C116.983 23.4713 116.68 23.532 116.193 23.532C114.674 23.532 111.515 23.0459 111.515 18.5494V11.7438H111.636Z" fill="black"/>
<path d="M125.673 9.73865C129.379 9.73865 131.263 12.5946 131.263 15.8758C131.263 16.1796 131.202 16.7873 131.202 16.7873H120.933C120.994 20.19 123.364 22.0737 126.098 22.0737C128.529 22.0737 130.169 20.4331 130.169 20.4331L131.02 21.8307C131.02 21.8307 129.075 23.7143 126.098 23.7143C122.088 23.7143 119.11 20.8584 119.11 16.7265C119.11 12.4123 122.088 9.73865 125.673 9.73865ZM129.44 15.3897C129.318 12.5946 127.617 11.3185 125.612 11.3185C123.364 11.3185 121.419 12.7161 120.994 15.3897H129.44Z" fill="black"/>
<path d="M33.3723 20.0078L24.9868 2.3255C24.0754 0.381059 21.7664 -0.408872 19.8827 0.502587L2.20038 8.88801C0.255937 9.79946 -0.533994 12.1085 0.377465 13.9922L8.76288 31.6745C9.67434 33.6189 11.9834 34.4088 13.867 33.4974L31.5493 25.112C33.4938 24.2613 34.2837 21.9522 33.3723 20.0078Z" fill="#27548C"/>
<path d="M40.7247 27.7856C41.3931 27.7856 41.6969 28.2718 41.6969 28.8794C41.6969 28.9402 41.6969 29.0617 41.6969 29.0617H39.9955C39.9955 29.5478 40.3601 29.8516 40.7854 29.8516C41.2108 29.8516 41.4538 29.6086 41.4538 29.6086L41.6361 29.9124C41.6361 29.9124 41.2716 30.2162 40.7247 30.2162C39.9955 30.2162 39.5094 29.6693 39.5094 29.0009C39.5702 28.2718 40.0563 27.7856 40.7247 27.7856ZM41.2716 28.6971C41.2716 28.2718 41.0285 28.0895 40.7247 28.0895C40.3601 28.0895 40.117 28.2718 40.0563 28.6971H41.2716Z" fill="black"/>
<path d="M44.1274 26.8741C44.9173 26.8741 45.2819 27.2995 45.2819 27.2995L45.0389 27.6641C45.0389 27.6641 44.6743 27.2995 44.1274 27.2995C43.3982 27.2995 42.9121 27.8464 42.9121 28.5148C42.9121 29.1832 43.3982 29.7908 44.1274 29.7908C44.7351 29.7908 45.0996 29.3655 45.0996 29.3655L45.3427 29.6693C45.3427 29.6693 44.9173 30.1554 44.0666 30.1554C43.0944 30.1554 42.426 29.4262 42.426 28.454C42.4868 27.6033 43.1552 26.8741 44.1274 26.8741Z" fill="black"/>
<path d="M47.3479 27.7856C48.0163 27.7856 48.624 28.2718 48.624 29.0009C48.624 29.7301 48.0771 30.2162 47.3479 30.2162C46.6795 30.2162 46.0719 29.7301 46.0719 29.0009C46.0719 28.2718 46.6188 27.7856 47.3479 27.7856ZM47.3479 29.7909C47.7733 29.7909 48.1379 29.4263 48.1379 28.9402C48.1379 28.4541 47.7733 28.0895 47.3479 28.0895C46.9226 28.0895 46.558 28.4541 46.558 28.9402C46.558 29.487 46.9226 29.7909 47.3479 29.7909Z" fill="black"/>
<path d="M49.4139 27.8464H49.8393V28.1502C49.8393 28.2718 49.8393 28.3325 49.8393 28.3325C49.9608 28.0895 50.2646 27.7856 50.6292 27.7856C50.9938 27.7856 51.2369 27.9679 51.2976 28.3325C51.4191 28.0287 51.723 27.7856 52.1483 27.7856C52.6952 27.7856 52.9382 28.0895 52.9382 28.6971V30.1554H52.5129V28.7579C52.5129 28.4541 52.4521 28.1502 52.0875 28.1502C51.7837 28.1502 51.5407 28.4541 51.4191 28.7579C51.4191 28.8794 51.3584 28.9402 51.3584 29.0617V30.0947H50.933V28.6971C50.933 28.3933 50.8723 28.0895 50.5077 28.0895C50.1431 28.0895 49.9608 28.3933 49.8393 28.6971C49.8393 28.8186 49.8393 28.8794 49.8393 29.0009V30.0339H49.4139V27.8464Z" fill="black"/>
<path d="M53.9712 27.8464H54.3965V28.1502C54.3965 28.2718 54.3965 28.3325 54.3965 28.3325C54.5181 28.0895 54.8219 27.7856 55.1865 27.7856C55.5511 27.7856 55.7941 27.9679 55.8549 28.3325C55.9764 28.0287 56.2802 27.7856 56.7056 27.7856C57.2524 27.7856 57.4955 28.0895 57.4955 28.6971V30.1554H57.0701V28.7579C57.0701 28.4541 57.0094 28.1502 56.6448 28.1502C56.341 28.1502 56.0979 28.4541 55.9764 28.7579C55.9764 28.8794 55.9156 28.9402 55.9156 29.0617V30.0947H55.4903V28.6971C55.4903 28.3933 55.4295 28.0895 55.0649 28.0895C54.7004 28.0895 54.5181 28.3933 54.3965 28.6971C54.3965 28.8186 54.3965 28.8794 54.3965 29.0009V30.0339H53.9712V27.8464Z" fill="black"/>
<path d="M59.44 27.7856C60.1084 27.7856 60.4122 28.2718 60.4122 28.8794C60.4122 28.9402 60.4122 29.0617 60.4122 29.0617H58.7108C58.7108 29.5478 59.0754 29.8516 59.5008 29.8516C59.9261 29.8516 60.1692 29.6086 60.1692 29.6086L60.3515 29.9124C60.3515 29.9124 59.9869 30.2162 59.44 30.2162C58.7108 30.2162 58.2247 29.6693 58.2247 29.0009C58.2855 28.2718 58.8324 27.7856 59.44 27.7856ZM59.9869 28.6971C59.9869 28.2718 59.7438 28.0895 59.44 28.0895C59.0754 28.0895 58.8324 28.2718 58.7716 28.6971H59.9869Z" fill="black"/>
<path d="M61.3236 27.8463H61.749V28.2717C61.749 28.3932 61.749 28.454 61.749 28.454C61.8705 28.0894 62.1135 27.8463 62.4781 27.8463C62.5389 27.8463 62.5997 27.8463 62.5997 27.8463V28.2717C62.5997 28.2717 62.5389 28.2717 62.4781 28.2717C62.1743 28.2717 61.9312 28.4539 61.8097 28.8185C61.749 28.9401 61.749 29.1224 61.749 29.2439V30.2161H61.3236V27.8463Z" fill="black"/>
<path d="M64.4833 27.7856C65.091 27.7856 65.334 28.1502 65.334 28.1502L65.1517 28.4541C65.1517 28.4541 64.9087 28.211 64.4833 28.211C63.9972 28.211 63.6934 28.5756 63.6934 29.0617C63.6934 29.5478 64.058 29.9124 64.4833 29.9124C64.9087 29.9124 65.2125 29.6086 65.2125 29.6086L65.3948 29.9124C65.3948 29.9124 65.091 30.277 64.4833 30.277C63.7542 30.277 63.268 29.7909 63.268 29.0617C63.2073 28.2718 63.7542 27.7856 64.4833 27.7856Z" fill="black"/>
<path d="M67.2177 27.7856C67.8861 27.7856 68.1899 28.2718 68.1899 28.8794C68.1899 28.9402 68.1899 29.0617 68.1899 29.0617H66.4885C66.4885 29.5478 66.8531 29.8516 67.2785 29.8516C67.7038 29.8516 67.9469 29.6086 67.9469 29.6086L68.1292 29.9124C68.1292 29.9124 67.7646 30.2162 67.2177 30.2162C66.4886 30.2162 66.0024 29.6693 66.0024 29.0009C66.0632 28.2718 66.5493 27.7856 67.2177 27.7856ZM67.7646 28.6971C67.7646 28.2718 67.5215 28.0895 67.2177 28.0895C66.8531 28.0895 66.6101 28.2718 66.5493 28.6971H67.7646Z" fill="black"/>
<path d="M70.7421 29.4262C70.7421 29.4262 71.1066 29.7908 71.5928 29.7908C71.8966 29.7908 72.1396 29.6085 72.1396 29.3047C72.1396 28.6363 70.5598 28.7578 70.5598 27.7856C70.5598 27.2995 70.9851 26.8741 71.5928 26.8741C72.2004 26.8741 72.5042 27.178 72.5042 27.178L72.3219 27.5426C72.3219 27.5426 72.0181 27.2387 71.5928 27.2387C71.2282 27.2387 70.9851 27.4818 70.9851 27.7248C70.9851 28.3932 72.565 28.211 72.565 29.2439C72.565 29.7301 72.2004 30.1554 71.532 30.1554C70.8636 30.1554 70.4382 29.73 70.4382 29.73L70.7421 29.4262Z" fill="black"/>
<path d="M74.5094 27.7856C75.1778 27.7856 75.7855 28.2718 75.7855 29.0009C75.7855 29.7301 75.2386 30.2162 74.5094 30.2162C73.841 30.2162 73.2334 29.7301 73.2334 29.0009C73.2942 28.2718 73.841 27.7856 74.5094 27.7856ZM74.5094 29.7909C74.9348 29.7909 75.2994 29.4263 75.2994 28.9402C75.2994 28.4541 74.9348 28.0895 74.5094 28.0895C74.0841 28.0895 73.7195 28.4541 73.7195 28.9402C73.7195 29.487 74.0841 29.7909 74.5094 29.7909Z" fill="black"/>
<path d="M76.6361 26.9349H77.0615V29.4263C77.0615 29.7301 77.183 29.7301 77.3045 29.7301C77.3653 29.7301 77.3653 29.7301 77.3653 29.7301V30.0947C77.3653 30.0947 77.3045 30.0947 77.2437 30.0947C77.0007 30.0947 76.6361 30.0339 76.6361 29.4263V26.9349Z" fill="black"/>
<path d="M78.1553 27.8463H78.5806V29.2439C78.5806 29.5477 78.6414 29.7908 79.0059 29.7908C79.4921 29.7908 79.7351 29.3654 79.7351 28.9401V27.8463H80.1605V30.1553H79.7351V29.8515C79.7351 29.73 79.7351 29.6692 79.7351 29.6692C79.6136 29.9123 79.3098 30.2161 78.8844 30.2161C78.3375 30.2161 78.0945 29.9123 78.0945 29.3046V27.8463H78.1553Z" fill="black"/>
<path d="M81.3757 28.211H81.0719V27.8464H81.3757V27.178H81.8011V27.8464H82.3479V28.211H81.8011V29.244C81.8011 29.7301 82.1049 29.7908 82.2872 29.7908C82.3479 29.7908 82.4087 29.7908 82.4087 29.7908V30.1554C82.4087 30.1554 82.3479 30.1554 82.2264 30.1554C81.9226 30.1554 81.315 30.0339 81.315 29.3047V28.211H81.3757Z" fill="black"/>
<path d="M83.2594 26.9349H83.6847V27.3603H83.2594V26.9349ZM83.2594 27.8464H83.6847V30.1554H83.2594V27.8464Z" fill="black"/>
<path d="M85.8114 27.7856C86.4798 27.7856 87.0875 28.2718 87.0875 29.0009C87.0875 29.7301 86.5406 30.2162 85.8114 30.2162C85.143 30.2162 84.5354 29.7301 84.5354 29.0009C84.5354 28.2718 85.143 27.7856 85.8114 27.7856ZM85.8114 29.7909C86.2368 29.7909 86.6014 29.4263 86.6014 28.9402C86.6014 28.4541 86.2368 28.0895 85.8114 28.0895C85.3861 28.0895 85.0215 28.4541 85.0215 28.9402C85.0215 29.487 85.3861 29.7909 85.8114 29.7909Z" fill="black"/>
<path d="M87.9382 27.8464H88.3636V28.1502C88.3636 28.2718 88.3636 28.3325 88.3636 28.3325C88.4851 28.1502 88.7282 27.7856 89.2143 27.7856C89.7612 27.7856 90.0042 28.0895 90.0042 28.6971V30.1554H89.5789V28.7579C89.5789 28.4541 89.5181 28.1502 89.1535 28.1502C88.7889 28.1502 88.5459 28.3933 88.4243 28.6971C88.4243 28.8186 88.3636 28.8794 88.3636 29.0009V30.0947H87.9382V27.8464Z" fill="black"/>
<path d="M91.0372 29.5478C91.0372 29.5478 91.2802 29.7908 91.7055 29.7908C91.8878 29.7908 92.0701 29.6693 92.0701 29.487C92.0701 29.0617 90.8549 29.1224 90.8549 28.3933C90.8549 27.9679 91.2194 27.7249 91.7055 27.7249C92.1917 27.7249 92.4347 27.9679 92.4347 27.9679L92.2524 28.2717C92.2524 28.2717 92.0701 28.0894 91.7055 28.0894C91.5233 28.0894 91.341 28.1502 91.341 28.3933C91.341 28.8186 92.5562 28.6971 92.5562 29.487C92.5562 29.8516 92.2524 30.1554 91.7055 30.1554C91.1587 30.1554 90.8549 29.7908 90.8549 29.7908L91.0372 29.5478Z" fill="black"/>
<path d="M19.2142 16.3012C21.2802 15.329 22.5562 13.3237 22.5562 11.197C22.5562 8.03728 19.7003 5.42444 16.2368 5.42444C12.7733 5.42444 9.91736 8.03728 9.91736 11.197C9.91736 13.3237 11.1934 15.2682 13.1986 16.2404L11.0719 26.631C10.9503 27.1171 11.0719 27.6033 11.3757 27.9678C11.6795 28.3324 12.1049 28.5755 12.591 28.5755H19.8826C20.3687 28.5755 20.8549 28.3324 21.1587 27.9678C21.4625 27.6033 21.584 27.1171 21.4625 26.631L19.2142 16.3012Z" fill="white"/>
<path d="M21.1587 9.43486C21.0979 9.31333 19.6396 6.57895 16.1761 6.51819C16.0545 6.51819 15.933 6.57896 15.8115 6.63972C15.6899 6.76125 15.6899 6.88277 15.6899 7.0043C15.6899 7.30812 15.933 7.49041 16.1761 7.55117C19.032 7.61194 20.2472 9.79944 20.308 9.92097C20.4295 10.1033 20.5511 10.2248 20.7941 10.2248C20.8549 10.2248 20.9764 10.2248 21.0372 10.164H21.0979C21.2195 9.98173 21.2802 9.67791 21.1587 9.43486Z" fill="#7FC346"/>
<path d="M16.1152 8.40186C15.9937 8.40186 15.8722 8.46262 15.7507 8.52338C15.6291 8.64491 15.5684 8.76644 15.5684 8.88797C15.5684 9.19179 15.7507 9.43484 16.0545 9.43484C18.0597 9.55637 18.7888 10.8932 18.7888 10.9539C18.8496 11.1362 19.0319 11.2578 19.275 11.2578C19.3357 11.2578 19.3965 11.2578 19.518 11.197C19.518 11.197 19.5788 11.197 19.5788 11.1362C19.7611 11.0147 19.8826 10.7109 19.7611 10.4678C19.6395 10.4071 18.6673 8.52338 16.1152 8.40186Z" fill="#7FC346"/>
<path d="M15.933 10.1641C15.8115 10.1641 15.6899 10.1641 15.5684 10.2856C15.4469 10.3464 15.3861 10.4679 15.3861 10.6502C15.3861 10.954 15.5684 11.197 15.8722 11.197C16.9052 11.3186 17.2698 11.987 17.2698 12.0477C17.3306 12.23 17.5736 12.3516 17.7559 12.3516C17.8167 12.3516 17.8774 12.3516 17.9382 12.2908C17.9382 12.2908 17.999 12.2908 17.999 12.23C18.1812 12.1085 18.3028 11.8047 18.1812 11.5616C18.1205 11.5616 17.5736 10.3464 15.933 10.1641Z" fill="#7FC346"/>
<path d="M21.4625 11.8655C21.4625 11.5617 21.2195 11.2578 20.8549 11.2578C20.5511 11.2578 20.308 11.4401 20.308 11.7439C20.065 13.1415 18.8497 14.3568 17.2698 14.7214C16.966 14.7821 16.7837 15.086 16.8445 15.3898L19.275 26.3273H13.5025L15.7507 15.329C15.8115 15.0252 15.6292 14.7214 15.3254 14.6606C13.5632 14.2353 12.2872 12.8377 12.2872 11.2578C12.2872 9.92103 13.1379 8.70575 14.5354 8.09811C14.657 8.03735 14.7785 7.91582 14.8393 7.79429C14.9 7.67277 14.9 7.49048 14.8393 7.36895C14.7177 7.06513 14.3531 6.9436 14.0493 7.06512C12.2264 7.85505 11.0719 9.49568 11.0719 11.3186C11.0719 13.263 12.4087 15.0252 14.4747 15.6936L12.1656 26.8742C12.1656 27.0564 12.1656 27.2387 12.2872 27.3603C12.4087 27.4818 12.5302 27.5426 12.7125 27.5426H19.8827C20.065 27.5426 20.2472 27.4818 20.308 27.3603C20.4295 27.2387 20.4903 27.0564 20.4295 26.8742L17.9382 15.7544C19.7611 15.2075 21.0372 13.7492 21.341 12.0478V11.987C21.4625 11.987 21.4625 11.987 21.4625 11.8655C21.4625 11.9262 21.4625 11.9262 21.4625 11.8655Z" fill="#27548C"/>
</svg>
